999
FreeCAD v0.18 4 (GitTag)
  0
SECTION
  2
HEADER
  9
$ACADVER
  1
AC1014
  9
$ACADMAINTVER
 70
     9
  9
$DWGCODEPAGE
  3
ANSI_1252
  9
$TEXTSTYLE
  7
STANDARD
  9
$DIMSTYLE
  2
STANDARD
  9
$DIMTXSTY
  7
STANDARD
  9
$CMLSTYLE
  2
STANDARD
  9
$HANDSEED
  5
FFF
  0
ENDSEC
  0
SECTION
  2
CLASSES
  0
CLASS
  1
ACDBDICTIONARYWDFLT
  2
AcDbDictionaryWithDefault
  3
ObjectDBX Classes
 90
        0
280
     0
281
     0
  0
CLASS
  1
XRECORD
  2
AcDbXrecord
  3
ObjectDBX Classes
 90
        0
280
     0
281
     0
  0
CLASS
  1
LWPOLYLINE
  2
AcDbPolyline
  3
ObjectDBX Classes
 90
        0
280
     0
281
     1
  0
ENDSEC
  0
SECTION
  2
TABLES
  0
TABLE
  2
VPORT
  5
20
330
0
100
AcDbSymbolTable
 70
     1
  0
VPORT
  5
21
330
20
100
AcDbSymbolTableRecord
100
AcDbViewportTableRecord
  2
*ACTIVE
 70
     0
  0
ENDTAB
  0
TABLE
  2
LTYPE
  5
22
330
0
100
AcDbSymbolTable
 70
     1
  0
LTYPE
  5
23
330
21
100
AcDbSymbolTableRecord
100
AcDbLinetypeTableRecord
  2
BYBLOCK
 70
     0
  3

 72
    65
 73
     0
 40
0.0
  0
LTYPE
  5
24
330
21
100
AcDbSymbolTableRecord
100
AcDbLinetypeTableRecord
  2
BYLAYER
 70
     0
  3

 72
    65
 73
     0
 40
0.0
  0
LTYPE
  5
25
330
21
100
AcDbSymbolTableRecord
100
AcDbLinetypeTableRecord
  2
CONTINUOUS
 70
     0
  3
Solid line
 72
    65
 73
     0
 40
0.0
  0
ENDTAB
  0
TABLE
  2
LAYER
  5
31
330
0
100
AcDbSymbolTable
 70
11
  0
LAYER
  5
32
330
31
100
AcDbSymbolTableRecord
100
AcDbLayerTableRecord
  2
0
 70
   0
 62
   7
  6
CONTINUOUS
  0
LAYER
  5
33
330
31
100
AcDbSymbolTableRecord
100
AcDbLayerTableRecord
  2
ProjItem
 70
    0
 62
    7
  6
CONTINUOUS
  0
LAYER
  5
34
330
31
100
AcDbSymbolTableRecord
100
AcDbLayerTableRecord
  2
ProjItem001
 70
    0
 62
    7
  6
CONTINUOUS
  0
LAYER
  5
35
330
31
100
AcDbSymbolTableRecord
100
AcDbLayerTableRecord
  2
ProjItem002
 70
    0
 62
    7
  6
CONTINUOUS
  0
LAYER
  5
36
330
31
100
AcDbSymbolTableRecord
100
AcDbLayerTableRecord
  2
ProjItem003
 70
    0
 62
    7
  6
CONTINUOUS
  0
LAYER
  5
37
330
31
100
AcDbSymbolTableRecord
100
AcDbLayerTableRecord
  2
ProjItem004
 70
    0
 62
    7
  6
CONTINUOUS
  0
LAYER
  5
38
330
31
100
AcDbSymbolTableRecord
100
AcDbLayerTableRecord
  2
ProjItem005
 70
    0
 62
    7
  6
CONTINUOUS
  0
LAYER
  5
39
330
31
100
AcDbSymbolTableRecord
100
AcDbLayerTableRecord
  2
ProjItem006
 70
    0
 62
    7
  6
CONTINUOUS
  0
LAYER
  5
3A
330
31
100
AcDbSymbolTableRecord
100
AcDbLayerTableRecord
  2
ProjItem007
 70
    0
 62
    7
  6
CONTINUOUS
  0
LAYER
  5
3B
330
31
100
AcDbSymbolTableRecord
100
AcDbLayerTableRecord
  2
ProjItem008
 70
    0
 62
    7
  6
CONTINUOUS
  0
LAYER
  5
3C
330
31
100
AcDbSymbolTableRecord
100
AcDbLayerTableRecord
  2
ProjItem009
 70
    0
 62
    7
  6
CONTINUOUS
  0
ENDTAB
  0
TABLE
  2
STYLE
  5
60
330
0
100
AcDbSymbolTable
 70
     2
  0
STYLE
  5
61
330
60
100
AcDbSymbolTableRecord
100
AcDbTextStyleTableRecord
  2
STANDARD
 70
     0
 40
0.0
 41
1.0
 50
0.0
 71
     0
 42
2.5
  3
arial.ttf
  4

  0
STYLE
  5
62
330
60
100
AcDbSymbolTableRecord
100
AcDbTextStyleTableRecord
  2
ANNOTATIVE
 70
     0
 40
0.0
 41
1.0
 50
0.0
 71
     0
 42
2.5
  3
arial.ttf
  4

  0
ENDTAB
  0
TABLE
  2
VIEW
  5
63
330
0
100
AcDbSymbolTable
 70
     0
  0
ENDTAB
  0
TABLE
  2
UCS
  5
64
330
0
100
AcDbSymbolTable
 70
     0
  0
ENDTAB
  0
TABLE
  2
APPID
  5
65
330
0
100
AcDbSymbolTable
 70
     2
  0
APPID
  5
66
330
65
100
AcDbSymbolTableRecord
100
AcDbRegAppTableRecord
  2
ACAD
 70
     0
  0
APPID
  5
67
330
65
100
AcDbSymbolTableRecord
100
AcDbRegAppTableRecord
  2
ACADANNOTATIVE
 70
     0
  0
ENDTAB
  0
TABLE
  2
DIMSTYLE
  5
68
330
0
100
AcDbSymbolTable
 70
     2
  0
DIMSTYLE
105
69
330
68
100
AcDbSymbolTableRecord
100
AcDbDimStyleTableRecord
  2
STANDARD
 70
     0
  3

  4

  5

  6

  7

 40
0.0
 41
2.5
 42
0.625
 43
3.75
 44
1.25
 45
0.0
 46
0.0
 47
0.0
 48
0.0
140
2.5
141
2.5
142
0.0
143
0.03937007874016
144
1.0
145
0.0
146
1.0
147
0.625
 71
     0
 72
     0
 73
     0
 74
     0
 75
     0
 76
     0
 77
     1
 78
     8
170
     0
171
     3
172
     1
173
     0
174
     0
175
     0
176
     0
177
     0
178
     0
270
     2
271
     2
272
     2
273
     2
274
     3
340
61
275
     0
280
     0
281
     0
282
     0
283
     0
284
     8
285
     0
286
     0
287
     3
288
     0
  0
ENDTAB
  0
TABLE
  2
BLOCK_RECORD
  5
111
330
0
100
AcDbSymbolTable
  70
5
  0
BLOCK_RECORD
  5
112
330
111
100
AcDbSymbolTableRecord
100
AcDbBlockTableRecord
  2
*MODEL_SPACE
  0
BLOCK_RECORD
  5
113
330
111
100
AcDbSymbolTableRecord
100
AcDbBlockTableRecord
  2
*PAPER_SPACE
  0
ENDTAB
  0
ENDSEC
  0
SECTION
  2
BLOCKS
  0
BLOCK
  5
211
330
112
100
AcDbEntity
  8
0
100
AcDbBlockBegin
  2
*MODEL_SPACE
 70
   0
 10
0
 20
0
 30
0
  3
*MODEL_SPACE
  1
 
  0
ENDBLK
  5
212
330
112
100
AcDbEntity
  8
0
100
AcDbBlockEnd
  0
BLOCK
  5
213
330
113
100
AcDbEntity
 67
1
  8
0
100
AcDbBlockBegin
  2
*PAPER_SPACE
 70
   0
 10
0
 20
0
 30
0
  3
*PAPER_SPACE
  1
 
  0
ENDBLK
  5
214
330
113
100
AcDbEntity
 67
    1
  8
0
100
AcDbBlockEnd
  0
ENDSEC
  0
SECTION
  2
ENTITIES
  0
LINE
  5
301
330
112
100
AcDbEntity
  8
ProjItem
100
AcDbLine
 10
155.276
 20
91.1459
 30
0
 11
149.676
 21
95.2148
 31
0
  0
ARC
  5
302
330
112
100
AcDbEntity
  8
ProjItem
100
AcDbCircle
 10
156.451
 20
92.7639
 30
0
 40
2
100
AcDbArc
 50
-126
 51
18
  0
ARC
  5
303
330
112
100
AcDbEntity
  8
ProjItem
100
AcDbCircle
 10
148.5
 20
93.5967
 30
0
 40
2
100
AcDbArc
 50
54
 51
126
  0
LINE
  5
304
330
112
100
AcDbEntity
  8
ProjItem
100
AcDbLine
 10
156.214
 20
99.9656
 30
0
 11
158.354
 21
93.382
 31
0
  0
LINE
  5
305
330
112
100
AcDbEntity
  8
ProjItem
100
AcDbLine
 10
147.324
 20
95.2148
 30
0
 11
141.724
 21
91.1459
 31
0
  0
ARC
  5
306
330
112
100
AcDbEntity
  8
ProjItem
100
AcDbCircle
 10
158.117
 20
100.584
 30
0
 40
2
100
AcDbArc
 50
126
 51
-162
  0
ARC
  5
307
330
112
100
AcDbEntity
  8
ProjItem
100
AcDbCircle
 10
140.549
 20
92.7639
 30
0
 40
2
100
AcDbArc
 50
162
 51
-54
  0
LINE
  5
308
330
112
100
AcDbEntity
  8
ProjItem
100
AcDbLine
 10
162.541
 20
106.271
 30
0
 11
156.941
 21
102.202
 31
0
  0
LINE
  5
309
330
112
100
AcDbEntity
  8
ProjItem
100
AcDbLine
 10
138.646
 20
93.382
 30
0
 11
140.786
 21
99.9656
 31
0
  0
ARC
  5
30A
330
112
100
AcDbEntity
  8
ProjItem
100
AcDbCircle
 10
161.366
 20
107.889
 30
0
 40
2
100
AcDbArc
 50
-54
 51
90
  0
ARC
  5
30B
330
112
100
AcDbEntity
  8
ProjItem
100
AcDbCircle
 10
138.883
 20
100.584
 30
0
 40
2
100
AcDbArc
 50
-18
 51
54
  0
LINE
  5
30C
330
112
100
AcDbEntity
  8
ProjItem
100
AcDbLine
 10
154.443
 20
109.889
 30
0
 11
161.366
 21
109.889
 31
0
  0
LINE
  5
30D
330
112
100
AcDbEntity
  8
ProjItem
100
AcDbLine
 10
140.059
 20
102.202
 30
0
 11
134.459
 21
106.271
 31
0
  0
ARC
  5
30E
330
112
100
AcDbEntity
  8
ProjItem
100
AcDbCircle
 10
154.443
 20
111.889
 30
0
 40
2
100
AcDbArc
 50
-162
 51
-90
  0
ARC
  5
30F
330
112
100
AcDbEntity
  8
ProjItem
100
AcDbCircle
 10
135.634
 20
107.889
 30
0
 40
2
100
AcDbArc
 50
90
 51
-126
  0
LINE
  5
310
330
112
100
AcDbEntity
  8
ProjItem
100
AcDbLine
 10
150.402
 20
117.854
 30
0
 11
152.541
 21
111.271
 31
0
  0
LINE
  5
311
330
112
100
AcDbEntity
  8
ProjItem
100
AcDbLine
 10
135.634
 20
109.889
 30
0
 11
142.557
 21
109.889
 31
0
  0
ARC
  5
312
330
112
100
AcDbEntity
  8
ProjItem
100
AcDbCircle
 10
148.5
 20
117.236
 30
0
 40
2
100
AcDbArc
 50
18
 51
162
  0
ARC
  5
313
330
112
100
AcDbEntity
  8
ProjItem
100
AcDbCircle
 10
142.557
 20
111.889
 30
0
 40
2
100
AcDbArc
 50
-90
 51
-18
  0
LINE
  5
314
330
112
100
AcDbEntity
  8
ProjItem
100
AcDbLine
 10
144.459
 20
111.271
 30
0
 11
146.598
 21
117.854
 31
0
  0
LINE
  5
315
330
112
100
AcDbEntity
  8
ProjItem
100
AcDbLine
 10
150.354
 20
102.797
 30
0
 11
150.842
 21
101.294
 31
0
  0
ARC
  5
316
330
112
100
AcDbEntity
  8
ProjItem
100
AcDbCircle
 10
150.829
 20
102.951
 30
0
 40
0.5
100
AcDbArc
 50
126
 51
-162
  0
ARC
  5
317
330
112
100
AcDbEntity
  8
ProjItem
100
AcDbCircle
 10
150.367
 20
101.139
 30
0
 40
0.5
100
AcDbArc
 50
-126
 51
18
  0
LINE
  5
318
330
112
100
AcDbEntity
  8
ProjItem
100
AcDbLine
 10
151.814
 20
104.285
 30
0
 11
150.535
 21
103.356
 31
0
  0
LINE
  5
319
330
112
100
AcDbEntity
  8
ProjItem
100
AcDbLine
 10
150.073
 20
100.735
 30
0
 11
148.794
 21
101.664
 31
0
  0
ARC
  5
31A
330
112
100
AcDbEntity
  8
ProjItem
100
AcDbCircle
 10
151.52
 20
104.69
 30
0
 40
0.5
100
AcDbArc
 50
-54
 51
90
  0
ARC
  5
31B
330
112
100
AcDbEntity
  8
ProjItem
100
AcDbCircle
 10
148.5
 20
101.259
 30
0
 40
0.5
100
AcDbArc
 50
54
 51
126
  0
LINE
  5
31C
330
112
100
AcDbEntity
  8
ProjItem
100
AcDbLine
 10
149.94
 20
105.19
 30
0
 11
151.52
 21
105.19
 31
0
  0
LINE
  5
31D
330
112
100
AcDbEntity
  8
ProjItem
100
AcDbLine
 10
148.206
 20
101.664
 30
0
 11
146.927
 21
100.735
 31
0
  0
ARC
  5
31E
330
112
100
AcDbEntity
  8
ProjItem
100
AcDbCircle
 10
149.94
 20
105.69
 30
0
 40
0.5
100
AcDbArc
 50
-162
 51
-90
  0
ARC
  5
31F
330
112
100
AcDbEntity
  8
ProjItem
100
AcDbCircle
 10
146.633
 20
101.139
 30
0
 40
0.5
100
AcDbArc
 50
162
 51
-54
  0
LINE
  5
320
330
112
100
AcDbEntity
  8
ProjItem
100
AcDbLine
 10
148.976
 20
107.038
 30
0
 11
149.464
 21
105.535
 31
0
  0
LINE
  5
321
330
112
100
AcDbEntity
  8
ProjItem
100
AcDbLine
 10
146.158
 20
101.294
 30
0
 11
146.646
 21
102.797
 31
0
  0
ARC
  5
322
330
112
100
AcDbEntity
  8
ProjItem
100
AcDbCircle
 10
148.5
 20
106.884
 30
0
 40
0.5
100
AcDbArc
 50
18
 51
162
  0
ARC
  5
323
330
112
100
AcDbEntity
  8
ProjItem
100
AcDbCircle
 10
146.171
 20
102.951
 30
0
 40
0.5
100
AcDbArc
 50
-18
 51
54
  0
LINE
  5
324
330
112
100
AcDbEntity
  8
ProjItem
100
AcDbLine
 10
147.536
 20
105.535
 30
0
 11
148.024
 21
107.038
 31
0
  0
LINE
  5
325
330
112
100
AcDbEntity
  8
ProjItem
100
AcDbLine
 10
146.465
 20
103.356
 30
0
 11
145.186
 21
104.285
 31
0
  0
ARC
  5
326
330
112
100
AcDbEntity
  8
ProjItem
100
AcDbCircle
 10
147.06
 20
105.69
 30
0
 40
0.5
100
AcDbArc
 50
-90
 51
-18
  0
ARC
  5
327
330
112
100
AcDbEntity
  8
ProjItem
100
AcDbCircle
 10
145.48
 20
104.69
 30
0
 40
0.5
100
AcDbArc
 50
90
 51
-126
  0
LINE
  5
328
330
112
100
AcDbEntity
  8
ProjItem
100
AcDbLine
 10
145.48
 20
105.19
 30
0
 11
147.06
 21
105.19
 31
0
  0
CIRCLE
  5
329
330
112
100
AcDbEntity
  8
ProjItem
100
AcDbCircle
 10
148.5
 20
117.236
 40
1
  0
LINE
  5
32A
330
112
100
AcDbEntity
  8
ProjItem001
100
AcDbLine
 10
196.255
 20
136.38
 30
0
 11
192.295
 21
141.989
 31
0
  0
ELLIPSE
  5
32B
330
112
100
AcDbEntity
  8
ProjItem001
100
AcDbEllipse
 10
197.086
 20
137.222
 30
0
 11
1
 21
-1.73205
 31
0
 40
0.57735
 41
4.86947
 42
6.28319
  0
ELLIPSE
  5
32C
330
112
100
AcDbEntity
  8
ProjItem001
100
AcDbEllipse
 10
191.464
 20
141.148
 30
0
 11
1
 21
-1.73205
 31
0
 40
0.57735
 41
1.72788
 42
2.98451
  0
LINE
  5
32D
330
112
100
AcDbEntity
  8
ProjItem001
100
AcDbLine
 10
190.633
 20
142.949
 30
0
 11
186.672
 21
141.913
 31
0
  0
ELLIPSE
  5
32E
330
112
100
AcDbEntity
  8
ProjItem001
100
AcDbEllipse
 10
185.841
 20
143.714
 30
0
 11
-1
 21
1.73205
 31
0
 40
0.57735
 41
-5.81195
 42
-3.29867
  0
LINE
  5
32F
330
112
100
AcDbEntity
  8
ProjItem001
100
AcDbLine
 10
201.392
 20
145.764
 30
0
 11
200.404
 21
145.505
 31
0
  0
LINE
  5
330
330
112
100
AcDbEntity
  8
ProjItem001
100
AcDbLine
 10
184.496
 20
144.995
 30
0
 11
186.009
 21
149.497
 31
0
  0
ELLIPSE
  5
331
330
112
100
AcDbEntity
  8
ProjItem001
100
AcDbEllipse
 10
200.561
 20
147.565
 30
0
 11
-1
 21
1.73205
 31
0
 40
0.57735
 41
-3.29867
 42
-3.14159
  0
ELLIPSE
  5
332
330
112
100
AcDbEntity
  8
ProjItem001
100
AcDbEllipse
 10
184.664
 20
150.778
 30
0
 11
1
 21
-1.73205
 31
0
 40
0.57735
 41
0.471239
 42
1.72788
  0
LINE
  5
333
330
112
100
AcDbEntity
  8
ProjItem001
100
AcDbLine
 10
185.495
 20
151.62
 30
0
 11
181.535
 21
157.228
 31
0
  0
ELLIPSE
  5
334
330
112
100
AcDbEntity
  8
ProjItem001
100
AcDbEllipse
 10
182.366
 20
158.069
 30
0
 11
-1
 21
1.73205
 31
0
 40
0.57735
 41
-0
 42
-4.55531
  0
ELLIPSE
  5
335
330
112
100
AcDbEntity
  8
ProjItem001
100
AcDbEllipse
 10
191.464
 20
160.449
 30
0
 11
-1
 21
1.73205
 31
0
 40
0.57735
 41
-0
 42
-5.81195
  0
LINE
  5
336
330
112
100
AcDbEntity
  8
ProjItem001
100
AcDbLine
 10
189.437
 20
159.702
 30
0
 11
190.119
 21
161.73
 31
0
  0
LINE
  5
337
330
112
100
AcDbEntity
  8
ProjItem001
100
AcDbLine
 10
199.791
 20
138.422
 30
0
 11
195.831
 21
144.03
 31
0
  0
ELLIPSE
  5
338
330
112
100
AcDbEntity
  8
ProjItem001
100
AcDbEllipse
 10
200.622
 20
139.263
 30
0
 11
1
 21
-1.73205
 31
0
 40
0.57735
 41
4.86947
 42
6.28319
  0
ELLIPSE
  5
339
330
112
100
AcDbEntity
  8
ProjItem001
100
AcDbEllipse
 10
200.622
 20
139.263
 30
0
 11
1
 21
-1.73205
 31
0
 40
0.57735
 41
-8.88178e-16
 42
1.09956
  0
ELLIPSE
  5
33A
330
112
100
AcDbEntity
  8
ProjItem001
100
AcDbEllipse
 10
194.999
 20
143.189
 30
0
 11
1
 21
-1.73205
 31
0
 40
0.57735
 41
1.72788
 42
2.98451
  0
LINE
  5
33B
330
112
100
AcDbEntity
  8
ProjItem001
100
AcDbLine
 10
200.454
 20
145.24
 30
0
 11
201.967
 21
138.991
 31
0
  0
LINE
  5
33C
330
112
100
AcDbEntity
  8
ProjItem001
100
AcDbLine
 10
194.168
 20
144.99
 30
0
 11
190.208
 21
143.954
 31
0
  0
ELLIPSE
  5
33D
330
112
100
AcDbEntity
  8
ProjItem001
100
AcDbEllipse
 10
201.799
 20
144.968
 30
0
 11
1
 21
-1.73205
 31
0
 40
0.57735
 41
2.98451
 42
3.14159
  0
ELLIPSE
  5
33E
330
112
100
AcDbEntity
  8
ProjItem001
100
AcDbEllipse
 10
201.799
 20
144.968
 30
0
 11
1
 21
-1.73205
 31
0
 40
0.57735
 41
3.14159
 42
4.24115
  0
ELLIPSE
  5
33F
330
112
100
AcDbEntity
  8
ProjItem001
100
AcDbEllipse
 10
189.377
 20
145.755
 30
0
 11
-1
 21
1.73205
 31
0
 40
0.57735
 41
-5.81195
 42
-3.29867
  0
LINE
  5
340
330
112
100
AcDbEntity
  8
ProjItem001
100
AcDbLine
 10
204.928
 20
147.805
 30
0
 11
200.968
 21
146.769
 31
0
  0
LINE
  5
341
330
112
100
AcDbEntity
  8
ProjItem001
100
AcDbLine
 10
188.032
 20
147.036
 30
0
 11
189.544
 21
151.539
 31
0
  0
ELLIPSE
  5
342
330
112
100
AcDbEntity
  8
ProjItem001
100
AcDbEllipse
 10
204.097
 20
149.606
 30
0
 11
-1
 21
1.73205
 31
0
 40
0.57735
 41
-3.14159
 42
-0.785398
  0
ELLIPSE
  5
343
330
112
100
AcDbEntity
  8
ProjItem001
100
AcDbEllipse
 10
204.097
 20
149.606
 30
0
 11
-1
 21
1.73205
 31
0
 40
0.57735
 41
-3.29867
 42
-3.14159
  0
ELLIPSE
  5
344
330
112
100
AcDbEntity
  8
ProjItem001
100
AcDbEllipse
 10
188.199
 20
152.82
 30
0
 11
1
 21
-1.73205
 31
0
 40
0.57735
 41
0.471239
 42
1.72788
  0
LINE
  5
345
330
112
100
AcDbEntity
  8
ProjItem001
100
AcDbLine
 10
199.202
 20
154.065
 30
0
 11
204.097
 21
151.239
 31
0
  0
LINE
  5
346
330
112
100
AcDbEntity
  8
ProjItem001
100
AcDbLine
 10
189.031
 20
153.661
 30
0
 11
185.071
 21
159.269
 31
0
  0
ELLIPSE
  5
347
330
112
100
AcDbEntity
  8
ProjItem001
100
AcDbEllipse
 10
199.202
 20
155.698
 30
0
 11
1
 21
-1.73205
 31
0
 40
0.57735
 41
4.24115
 42
5.49779
  0
ELLIPSE
  5
348
330
112
100
AcDbEntity
  8
ProjItem001
100
AcDbEllipse
 10
185.902
 20
160.111
 30
0
 11
-1
 21
1.73205
 31
0
 40
0.57735
 41
-0
 42
-4.55531
  0
ELLIPSE
  5
349
330
112
100
AcDbEntity
  8
ProjItem001
100
AcDbEllipse
 10
185.902
 20
160.111
 30
0
 11
-1
 21
1.73205
 31
0
 40
0.57735
 41
-0.785398
 42
-0
  0
LINE
  5
34A
330
112
100
AcDbEntity
  8
ProjItem001
100
AcDbLine
 10
196.344
 20
162.219
 30
0
 11
197.857
 21
155.97
 31
0
  0
LINE
  5
34B
330
112
100
AcDbEntity
  8
ProjItem001
100
AcDbLine
 10
185.902
 20
161.744
 30
0
 11
190.797
 21
158.918
 31
0
  0
ELLIPSE
  5
34C
330
112
100
AcDbEntity
  8
ProjItem001
100
AcDbEllipse
 10
194.999
 20
162.49
 30
0
 11
-1
 21
1.73205
 31
0
 40
0.57735
 41
-0
 42
-5.81195
  0
ELLIPSE
  5
34D
330
112
100
AcDbEntity
  8
ProjItem001
100
AcDbEllipse
 10
194.999
 20
162.49
 30
0
 11
-1
 21
1.73205
 31
0
 40
0.57735
 41
-2.04204
 42
-0
  0
ELLIPSE
  5
34E
330
112
100
AcDbEntity
  8
ProjItem001
100
AcDbEllipse
 10
190.797
 20
160.551
 30
0
 11
1
 21
-1.73205
 31
0
 40
0.57735
 41
5.49779
 42
0
  0
ELLIPSE
  5
34F
330
112
100
AcDbEntity
  8
ProjItem001
100
AcDbEllipse
 10
190.797
 20
160.551
 30
0
 11
1
 21
-1.73205
 31
0
 40
0.57735
 41
0
 42
0.471239
  0
LINE
  5
350
330
112
100
AcDbEntity
  8
ProjItem001
100
AcDbLine
 10
192.142
 20
159.269
 30
0
 11
193.654
 21
163.772
 31
0
  0
LINE
  5
351
330
112
100
AcDbEntity
  8
ProjItem001
100
AcDbLine
 10
196.31
 20
149.944
 30
0
 11
196.655
 21
148.517
 31
0
  0
ELLIPSE
  5
352
330
112
100
AcDbEntity
  8
ProjItem001
100
AcDbEllipse
 10
196.646
 20
149.876
 30
0
 11
-0.25
 21
0.433013
 31
0
 40
0.57735
 41
-6.28319
 42
-5.18363
  0
ELLIPSE
  5
353
330
112
100
AcDbEntity
  8
ProjItem001
100
AcDbEllipse
 10
196.646
 20
149.876
 30
0
 11
-0.25
 21
0.433013
 31
0
 40
0.57735
 41
-0.15708
 42
8.88178e-16
  0
ELLIPSE
  5
354
330
112
100
AcDbEntity
  8
ProjItem001
100
AcDbEllipse
 10
196.319
 20
148.585
 30
0
 11
-0.25
 21
0.433013
 31
0
 40
0.57735
 41
-3.14159
 42
-2.04204
  0
ELLIPSE
  5
355
330
112
100
AcDbEntity
  8
ProjItem001
100
AcDbEllipse
 10
196.319
 20
148.585
 30
0
 11
-0.25
 21
0.433013
 31
0
 40
0.57735
 41
-4.55531
 42
-3.14159
  0
LINE
  5
356
330
112
100
AcDbEntity
  8
ProjItem001
100
AcDbLine
 10
197.343
 20
150.563
 30
0
 11
196.438
 21
150.326
 31
0
  0
LINE
  5
357
330
112
100
AcDbEntity
  8
ProjItem001
100
AcDbLine
 10
196.111
 20
148.375
 30
0
 11
195.207
 21
149.656
 31
0
  0
ELLIPSE
  5
358
330
112
100
AcDbEntity
  8
ProjItem001
100
AcDbEllipse
 10
197.135
 20
151.013
 30
0
 11
0.25
 21
-0.433013
 31
0
 40
0.57735
 41
6.12611
 42
0
  0
ELLIPSE
  5
359
330
112
100
AcDbEntity
  8
ProjItem001
100
AcDbEllipse
 10
197.135
 20
151.013
 30
0
 11
0.25
 21
-0.433013
 31
0
 40
0.57735
 41
0
 42
2.35619
  0
ELLIPSE
  5
35A
330
112
100
AcDbEntity
  8
ProjItem001
100
AcDbEllipse
 10
194.999
 20
149.445
 30
0
 11
-0.25
 21
0.433013
 31
0
 40
0.57735
 41
-1.41372
 42
-0.15708
  0
LINE
  5
35B
330
112
100
AcDbEntity
  8
ProjItem001
100
AcDbLine
 10
196.017
 20
152.067
 30
0
 11
197.135
 21
151.422
 31
0
  0
LINE
  5
35C
330
112
100
AcDbEntity
  8
ProjItem001
100
AcDbLine
 10
194.791
 20
149.896
 30
0
 11
193.887
 21
149.659
 31
0
  0
ELLIPSE
  5
35D
330
112
100
AcDbEntity
  8
ProjItem001
100
AcDbEllipse
 10
196.017
 20
152.475
 30
0
 11
-0.25
 21
0.433013
 31
0
 40
0.57735
 41
-5.18363
 42
-3.92699
  0
ELLIPSE
  5
35E
330
112
100
AcDbEntity
  8
ProjItem001
100
AcDbEllipse
 10
193.679
 20
150.109
 30
0
 11
0.25
 21
-0.433013
 31
0
 40
0.57735
 41
3.61283
 42
6.12611
  0
LINE
  5
35F
330
112
100
AcDbEntity
  8
ProjItem001
100
AcDbLine
 10
195.336
 20
153.97
 30
0
 11
195.681
 21
152.543
 31
0
  0
LINE
  5
360
330
112
100
AcDbEntity
  8
ProjItem001
100
AcDbLine
 10
193.343
 20
150.43
 30
0
 11
193.689
 21
151.458
 31
0
  0
ELLIPSE
  5
361
330
112
100
AcDbEntity
  8
ProjItem001
100
AcDbEllipse
 10
194.999
 20
154.038
 30
0
 11
0.25
 21
-0.433013
 31
0
 40
0.57735
 41
1.09956
 42
3.14159
  0
ELLIPSE
  5
362
330
112
100
AcDbEntity
  8
ProjItem001
100
AcDbEllipse
 10
194.999
 20
154.038
 30
0
 11
0.25
 21
-0.433013
 31
0
 40
0.57735
 41
3.14159
 42
3.61283
  0
ELLIPSE
  5
363
330
112
100
AcDbEntity
  8
ProjItem001
100
AcDbEllipse
 10
193.352
 20
151.778
 30
0
 11
-0.25
 21
0.433013
 31
0
 40
0.57735
 41
-2.67035
 42
-1.41372
  0
LINE
  5
364
330
112
100
AcDbEntity
  8
ProjItem001
100
AcDbLine
 10
194.318
 20
153.33
 30
0
 11
194.663
 21
154.358
 31
0
  0
LINE
  5
365
330
112
100
AcDbEntity
  8
ProjItem001
100
AcDbLine
 10
193.56
 20
151.988
 30
0
 11
192.656
 21
153.269
 31
0
  0
ELLIPSE
  5
366
330
112
100
AcDbEntity
  8
ProjItem001
100
AcDbEllipse
 10
193.981
 20
153.65
 30
0
 11
-0.25
 21
0.433013
 31
0
 40
0.57735
 41
-3.14159
 42
-2.67035
  0
ELLIPSE
  5
367
330
112
100
AcDbEntity
  8
ProjItem001
100
AcDbEllipse
 10
193.981
 20
153.65
 30
0
 11
-0.25
 21
0.433013
 31
0
 40
0.57735
 41
-3.92699
 42
-3.14159
  0
ELLIPSE
  5
368
330
112
100
AcDbEntity
  8
ProjItem001
100
AcDbEllipse
 10
192.864
 20
153.479
 30
0
 11
0.25
 21
-0.433013
 31
0
 40
0.57735
 41
2.35619
 42
3.14159
  0
ELLIPSE
  5
369
330
112
100
AcDbEntity
  8
ProjItem001
100
AcDbEllipse
 10
192.864
 20
153.479
 30
0
 11
0.25
 21
-0.433013
 31
0
 40
0.57735
 41
3.14159
 42
4.86947
  0
LINE
  5
36A
330
112
100
AcDbEntity
  8
ProjItem001
100
AcDbLine
 10
192.864
 20
153.887
 30
0
 11
193.981
 21
153.242
 31
0
  0
ELLIPSE
  5
36B
330
112
100
AcDbEntity
  8
ProjItem001
100
AcDbEllipse
 10
194.999
 20
162.49
 30
0
 11
0.5
 21
-0.866025
 31
0
 40
0.57735
 41
3.92699
 42
0
  0
ELLIPSE
  5
36C
330
112
100
AcDbEntity
  8
ProjItem001
100
AcDbEllipse
 10
194.999
 20
162.49
 30
0
 11
0.5
 21
-0.866025
 31
0
 40
0.57735
 41
0
 42
3.14159
  0
ELLIPSE
  5
36D
330
112
100
AcDbEntity
  8
ProjItem001
100
AcDbEllipse
 10
194.999
 20
162.49
 30
0
 11
0.5
 21
-0.866025
 31
0
 40
0.57735
 41
3.14159
 42
3.92699
  0
LINE
  5
36E
330
112
100
AcDbEntity
  8
ProjItem001
100
AcDbLine
 10
198.086
 20
135.49
 30
0
 11
201.622
 21
137.531
 31
0
  0
LINE
  5
36F
330
112
100
AcDbEntity
  8
ProjItem001
100
AcDbLine
 10
201.561
 20
145.833
 30
0
 11
205.097
 21
147.874
 31
0
  0
LINE
  5
370
330
112
100
AcDbEntity
  8
ProjItem001
100
AcDbLine
 10
181.366
 20
159.801
 30
0
 11
184.902
 21
161.843
 31
0
  0
LINE
  5
371
330
112
100
AcDbEntity
  8
ProjItem001
100
AcDbLine
 10
190.464
 20
162.181
 30
0
 11
193.999
 21
164.223
 31
0
  0
LINE
  5
372
330
112
100
AcDbEntity
  8
ProjItem001
100
AcDbLine
 10
195.224
 20
149.632
 30
0
 11
196.396
 21
150.309
 31
0
  0
LINE
  5
373
330
112
100
AcDbEntity
  8
ProjItem001
100
AcDbLine
 10
193.138
 20
152.586
 30
0
 11
194.231
 21
153.217
 31
0
  0
LINE
  5
374
330
112
100
AcDbEntity
  8
ProjItem002
100
AcDbLine
 10
155.276
 20
147.232
 30
0
 11
149.676
 21
147.232
 31
0
  0
SPLINE
  5
375
330
112
100
AcDbEntity
  8
ProjItem002
100
AcDbSpline
210
0
220
0
230
1
 70
8
 71
1
 72
16
 73
14
 74
0
 40
2.51327
 40
2.51327
 40
2.67035
 40
2.82743
 40
2.98451
 40
3.29867
 40
3.45575
 40
3.61283
 40
3.76991
 40
3.92699
 40
4.08407
 40
4.24115
 40
4.39823
 40
4.55531
 40
4.71239
 40
4.71239
 10
155.276
 20
147.232
 30
0
 10
155.543
 20
147.232
 30
0
 10
155.833
 20
147.232
 30
0
 10
156.139
 20
147.232
 30
0
 10
156.764
 20
147.232
 30
0
 10
157.07
 20
147.232
 30
0
 10
157.359
 20
147.232
 30
0
 10
157.627
 20
147.232
 30
0
 10
157.866
 20
147.232
 30
0
 10
158.07
 20
147.232
 30
0
 10
158.233
 20
147.232
 30
0
 10
158.354
 20
147.232
 30
0
 10
158.427
 20
147.232
 30
0
 10
158.451
 20
147.232
 30
0
  0
SPLINE
  5
376
330
112
100
AcDbEntity
  8
ProjItem002
100
AcDbSpline
210
0
220
0
230
1
 70
8
 71
3
 72
26
 73
22
 74
0
 40
5.65487
 40
5.65487
 40
5.65487
 40
5.65487
 40
5.74463
 40
5.74463
 40
5.74463
 40
5.92415
 40
5.92415
 40
5.92415
 40
6.28319
 40
6.28319
 40
6.28319
 40
6.55246
 40
6.55246
 40
6.55246
 40
6.73198
 40
6.73198
 40
6.73198
 40
6.82174
 40
6.82174
 40
6.82174
 40
6.9115
 40
6.9115
 40
6.9115
 40
6.9115
 10
149.676
 20
147.232
 30
0
 10
149.626
 20
147.232
 30
0
 10
149.576
 20
147.232
 30
0
 10
149.526
 20
147.232
 30
0
 10
149.422
 20
147.232
 30
0
 10
149.314
 20
147.232
 30
0
 10
149.203
 20
147.232
 30
0
 10
148.978
 20
147.232
 30
0
 10
148.74
 20
147.232
 30
0
 10
148.5
 20
147.232
 30
0
 10
148.32
 20
147.232
 30
0
 10
148.142
 20
147.232
 30
0
 10
147.968
 20
147.232
 30
0
 10
147.853
 20
147.232
 30
0
 10
147.741
 20
147.232
 30
0
 10
147.632
 20
147.232
 30
0
 10
147.58
 20
147.232
 30
0
 10
147.527
 20
147.232
 30
0
 10
147.474
 20
147.232
 30
0
 10
147.424
 20
147.232
 30
0
 10
147.374
 20
147.232
 30
0
 10
147.324
 20
147.232
 30
0
  0
LINE
  5
377
330
112
100
AcDbEntity
  8
ProjItem002
100
AcDbLine
 10
147.324
 20
147.232
 30
0
 11
141.724
 21
147.232
 31
0
  0
SPLINE
  5
378
330
112
100
AcDbEntity
  8
ProjItem002
100
AcDbSpline
210
0
220
0
230
1
 70
8
 71
1
 72
16
 73
14
 74
0
 40
2.51327
 40
2.51327
 40
2.67035
 40
2.82743
 40
2.98451
 40
3.29867
 40
3.45575
 40
3.61283
 40
3.76991
 40
3.92699
 40
4.08407
 40
4.24115
 40
4.39823
 40
4.55531
 40
4.71239
 40
4.71239
 10
141.724
 20
147.232
 30
0
 10
141.457
 20
147.232
 30
0
 10
141.167
 20
147.232
 30
0
 10
140.861
 20
147.232
 30
0
 10
140.236
 20
147.232
 30
0
 10
139.93
 20
147.232
 30
0
 10
139.641
 20
147.232
 30
0
 10
139.373
 20
147.232
 30
0
 10
139.134
 20
147.232
 30
0
 10
138.93
 20
147.232
 30
0
 10
138.767
 20
147.232
 30
0
 10
138.646
 20
147.232
 30
0
 10
138.573
 20
147.232
 30
0
 10
138.549
 20
147.232
 30
0
  0
LINE
  5
379
330
112
100
AcDbEntity
  8
ProjItem002
100
AcDbLine
 10
162.541
 20
147.232
 30
0
 11
158.451
 21
147.232
 31
0
  0
SPLINE
  5
37A
330
112
100
AcDbEntity
  8
ProjItem002
100
AcDbSpline
210
0
220
0
230
1
 70
8
 71
2
 72
26
 73
23
 74
0
 40
1.5708
 40
1.5708
 40
1.5708
 40
1.63812
 40
1.63812
 40
1.70544
 40
1.70544
 40
1.77276
 40
1.77276
 40
1.84008
 40
1.84008
 40
1.9074
 40
1.9074
 40
1.97472
 40
1.97472
 40
2.04204
 40
2.04204
 40
2.10936
 40
2.10936
 40
2.24399
 40
2.24399
 40
2.37863
 40
2.37863
 40
2.51327
 40
2.51327
 40
2.51327
 10
163.366
 20
147.232
 30
0
 10
163.363
 20
147.232
 30
0
 10
163.361
 20
147.232
 30
0
 10
163.354
 20
147.232
 30
0
 10
163.348
 20
147.232
 30
0
 10
163.336
 20
147.232
 30
0
 10
163.325
 20
147.232
 30
0
 10
163.309
 20
147.232
 30
0
 10
163.294
 20
147.232
 30
0
 10
163.274
 20
147.232
 30
0
 10
163.254
 20
147.232
 30
0
 10
163.229
 20
147.232
 30
0
 10
163.205
 20
147.232
 30
0
 10
163.176
 20
147.232
 30
0
 10
163.148
 20
147.232
 30
0
 10
163.115
 20
147.232
 30
0
 10
163.083
 20
147.232
 30
0
 10
163.012
 20
147.232
 30
0
 10
162.929
 20
147.232
 30
0
 10
162.844
 20
147.232
 30
0
 10
162.748
 20
147.232
 30
0
 10
162.649
 20
147.232
 30
0
 10
162.541
 20
147.232
 30
0
  0
LINE
  5
37B
330
112
100
AcDbEntity
  8
ProjItem002
100
AcDbLine
 10
138.549
 20
147.232
 30
0
 11
134.459
 21
147.232
 31
0
  0
SPLINE
  5
37C
330
112
100
AcDbEntity
  8
ProjItem002
100
AcDbSpline
210
0
220
0
230
1
 70
8
 71
2
 72
26
 73
23
 74
0
 40
3.76991
 40
3.76991
 40
3.76991
 40
3.83723
 40
3.83723
 40
3.97187
 40
3.97187
 40
4.10651
 40
4.10651
 40
4.24115
 40
4.24115
 40
4.30847
 40
4.30847
 40
4.37579
 40
4.37579
 40
4.44311
 40
4.44311
 40
4.51043
 40
4.51043
 40
4.57775
 40
4.57775
 40
4.64507
 40
4.64507
 40
4.71239
 40
4.71239
 40
4.71239
 10
134.459
 20
147.232
 30
0
 10
134.406
 20
147.232
 30
0
 10
134.352
 20
147.232
 30
0
 10
134.25
 20
147.232
 30
0
 10
134.158
 20
147.232
 30
0
 10
134.069
 20
147.232
 30
0
 10
133.99
 20
147.232
 30
0
 10
133.915
 20
147.232
 30
0
 10
133.852
 20
147.232
 30
0
 10
133.824
 20
147.232
 30
0
 10
133.795
 20
147.232
 30
0
 10
133.771
 20
147.232
 30
0
 10
133.746
 20
147.232
 30
0
 10
133.726
 20
147.232
 30
0
 10
133.706
 20
147.232
 30
0
 10
133.691
 20
147.232
 30
0
 10
133.675
 20
147.232
 30
0
 10
133.664
 20
147.232
 30
0
 10
133.652
 20
147.232
 30
0
 10
133.646
 20
147.232
 30
0
 10
133.639
 20
147.232
 30
0
 10
133.637
 20
147.232
 30
0
 10
133.634
 20
147.232
 30
0
  0
LINE
  5
37D
330
112
100
AcDbEntity
  8
ProjItem002
100
AcDbLine
 10
155.276
 20
152.232
 30
0
 11
149.676
 21
152.232
 31
0
  0
SPLINE
  5
37E
330
112
100
AcDbEntity
  8
ProjItem002
100
AcDbSpline
210
0
220
0
230
1
 70
8
 71
1
 72
16
 73
14
 74
0
 40
2.51327
 40
2.51327
 40
2.67035
 40
2.82743
 40
2.98451
 40
3.29867
 40
3.45575
 40
3.61283
 40
3.76991
 40
3.92699
 40
4.08407
 40
4.24115
 40
4.39823
 40
4.55531
 40
4.71239
 40
4.71239
 10
155.276
 20
152.232
 30
0
 10
155.543
 20
152.232
 30
0
 10
155.833
 20
152.232
 30
0
 10
156.139
 20
152.232
 30
0
 10
156.764
 20
152.232
 30
0
 10
157.07
 20
152.232
 30
0
 10
157.359
 20
152.232
 30
0
 10
157.627
 20
152.232
 30
0
 10
157.866
 20
152.232
 30
0
 10
158.07
 20
152.232
 30
0
 10
158.233
 20
152.232
 30
0
 10
158.354
 20
152.232
 30
0
 10
158.427
 20
152.232
 30
0
 10
158.451
 20
152.232
 30
0
  0
SPLINE
  5
37F
330
112
100
AcDbEntity
  8
ProjItem002
100
AcDbSpline
210
0
220
0
230
1
 70
8
 71
3
 72
26
 73
22
 74
0
 40
5.65487
 40
5.65487
 40
5.65487
 40
5.65487
 40
5.74463
 40
5.74463
 40
5.74463
 40
5.92415
 40
5.92415
 40
5.92415
 40
6.28319
 40
6.28319
 40
6.28319
 40
6.55246
 40
6.55246
 40
6.55246
 40
6.73198
 40
6.73198
 40
6.73198
 40
6.82174
 40
6.82174
 40
6.82174
 40
6.9115
 40
6.9115
 40
6.9115
 40
6.9115
 10
149.676
 20
152.232
 30
0
 10
149.626
 20
152.232
 30
0
 10
149.576
 20
152.232
 30
0
 10
149.526
 20
152.232
 30
0
 10
149.422
 20
152.232
 30
0
 10
149.314
 20
152.232
 30
0
 10
149.203
 20
152.232
 30
0
 10
148.978
 20
152.232
 30
0
 10
148.74
 20
152.232
 30
0
 10
148.5
 20
152.232
 30
0
 10
148.32
 20
152.232
 30
0
 10
148.142
 20
152.232
 30
0
 10
147.968
 20
152.232
 30
0
 10
147.853
 20
152.232
 30
0
 10
147.741
 20
152.232
 30
0
 10
147.632
 20
152.232
 30
0
 10
147.58
 20
152.232
 30
0
 10
147.527
 20
152.232
 30
0
 10
147.474
 20
152.232
 30
0
 10
147.424
 20
152.232
 30
0
 10
147.374
 20
152.232
 30
0
 10
147.324
 20
152.232
 30
0
  0
LINE
  5
380
330
112
100
AcDbEntity
  8
ProjItem002
100
AcDbLine
 10
147.324
 20
152.232
 30
0
 11
141.724
 21
152.232
 31
0
  0
SPLINE
  5
381
330
112
100
AcDbEntity
  8
ProjItem002
100
AcDbSpline
210
0
220
0
230
1
 70
8
 71
1
 72
16
 73
14
 74
0
 40
2.51327
 40
2.51327
 40
2.67035
 40
2.82743
 40
2.98451
 40
3.29867
 40
3.45575
 40
3.61283
 40
3.76991
 40
3.92699
 40
4.08407
 40
4.24115
 40
4.39823
 40
4.55531
 40
4.71239
 40
4.71239
 10
141.724
 20
152.232
 30
0
 10
141.457
 20
152.232
 30
0
 10
141.167
 20
152.232
 30
0
 10
140.861
 20
152.232
 30
0
 10
140.236
 20
152.232
 30
0
 10
139.93
 20
152.232
 30
0
 10
139.641
 20
152.232
 30
0
 10
139.373
 20
152.232
 30
0
 10
139.134
 20
152.232
 30
0
 10
138.93
 20
152.232
 30
0
 10
138.767
 20
152.232
 30
0
 10
138.646
 20
152.232
 30
0
 10
138.573
 20
152.232
 30
0
 10
138.549
 20
152.232
 30
0
  0
LINE
  5
382
330
112
100
AcDbEntity
  8
ProjItem002
100
AcDbLine
 10
162.541
 20
152.232
 30
0
 11
158.451
 21
152.232
 31
0
  0
SPLINE
  5
383
330
112
100
AcDbEntity
  8
ProjItem002
100
AcDbSpline
210
0
220
0
230
1
 70
8
 71
2
 72
26
 73
23
 74
0
 40
1.5708
 40
1.5708
 40
1.5708
 40
1.63812
 40
1.63812
 40
1.70544
 40
1.70544
 40
1.77276
 40
1.77276
 40
1.84008
 40
1.84008
 40
1.9074
 40
1.9074
 40
1.97472
 40
1.97472
 40
2.04204
 40
2.04204
 40
2.10936
 40
2.10936
 40
2.24399
 40
2.24399
 40
2.37863
 40
2.37863
 40
2.51327
 40
2.51327
 40
2.51327
 10
163.366
 20
152.232
 30
0
 10
163.363
 20
152.232
 30
0
 10
163.361
 20
152.232
 30
0
 10
163.354
 20
152.232
 30
0
 10
163.348
 20
152.232
 30
0
 10
163.336
 20
152.232
 30
0
 10
163.325
 20
152.232
 30
0
 10
163.309
 20
152.232
 30
0
 10
163.294
 20
152.232
 30
0
 10
163.274
 20
152.232
 30
0
 10
163.254
 20
152.232
 30
0
 10
163.229
 20
152.232
 30
0
 10
163.205
 20
152.232
 30
0
 10
163.176
 20
152.232
 30
0
 10
163.148
 20
152.232
 30
0
 10
163.115
 20
152.232
 30
0
 10
163.083
 20
152.232
 30
0
 10
163.012
 20
152.232
 30
0
 10
162.929
 20
152.232
 30
0
 10
162.844
 20
152.232
 30
0
 10
162.748
 20
152.232
 30
0
 10
162.649
 20
152.232
 30
0
 10
162.541
 20
152.232
 30
0
  0
LINE
  5
384
330
112
100
AcDbEntity
  8
ProjItem002
100
AcDbLine
 10
138.549
 20
152.232
 30
0
 11
134.459
 21
152.232
 31
0
  0
SPLINE
  5
385
330
112
100
AcDbEntity
  8
ProjItem002
100
AcDbSpline
210
0
220
0
230
1
 70
8
 71
2
 72
26
 73
23
 74
0
 40
3.76991
 40
3.76991
 40
3.76991
 40
3.83723
 40
3.83723
 40
3.97187
 40
3.97187
 40
4.10651
 40
4.10651
 40
4.24115
 40
4.24115
 40
4.30847
 40
4.30847
 40
4.37579
 40
4.37579
 40
4.44311
 40
4.44311
 40
4.51043
 40
4.51043
 40
4.57775
 40
4.57775
 40
4.64507
 40
4.64507
 40
4.71239
 40
4.71239
 40
4.71239
 10
134.459
 20
152.232
 30
0
 10
134.406
 20
152.232
 30
0
 10
134.352
 20
152.232
 30
0
 10
134.25
 20
152.232
 30
0
 10
134.158
 20
152.232
 30
0
 10
134.069
 20
152.232
 30
0
 10
133.99
 20
152.232
 30
0
 10
133.915
 20
152.232
 30
0
 10
133.852
 20
152.232
 30
0
 10
133.824
 20
152.232
 30
0
 10
133.795
 20
152.232
 30
0
 10
133.771
 20
152.232
 30
0
 10
133.746
 20
152.232
 30
0
 10
133.726
 20
152.232
 30
0
 10
133.706
 20
152.232
 30
0
 10
133.691
 20
152.232
 30
0
 10
133.675
 20
152.232
 30
0
 10
133.664
 20
152.232
 30
0
 10
133.652
 20
152.232
 30
0
 10
133.646
 20
152.232
 30
0
 10
133.639
 20
152.232
 30
0
 10
133.637
 20
152.232
 30
0
 10
133.634
 20
152.232
 30
0
  0
LINE
  5
386
330
112
100
AcDbEntity
  8
ProjItem002
100
AcDbLine
 10
158.451
 20
147.232
 30
0
 11
158.451
 21
152.232
 31
0
  0
LINE
  5
387
330
112
100
AcDbEntity
  8
ProjItem002
100
AcDbLine
 10
138.549
 20
147.232
 30
0
 11
138.549
 21
152.232
 31
0
  0
LINE
  5
388
330
112
100
AcDbEntity
  8
ProjItem002
100
AcDbLine
 10
163.366
 20
147.232
 30
0
 11
163.366
 21
152.232
 31
0
  0
LINE
  5
389
330
112
100
AcDbEntity
  8
ProjItem002
100
AcDbLine
 10
133.634
 20
147.232
 30
0
 11
133.634
 21
152.232
 31
0
  0
LINE
  5
38A
330
112
100
AcDbEntity
  8
ProjItem003
100
AcDbLine
 10
110.328
 20
141.913
 30
0
 11
106.367
 21
142.949
 31
0
  0
ELLIPSE
  5
38B
330
112
100
AcDbEntity
  8
ProjItem003
100
AcDbEllipse
 10
111.159
 20
143.714
 30
0
 11
1
 21
1.73205
 31
0
 40
0.57735
 41
3.29867
 42
5.81195
  0
ELLIPSE
  5
38C
330
112
100
AcDbEntity
  8
ProjItem003
100
AcDbEllipse
 10
105.536
 20
141.148
 30
0
 11
1
 21
1.73205
 31
0
 40
0.57735
 41
0.15708
 42
1.41372
  0
LINE
  5
38D
330
112
100
AcDbEntity
  8
ProjItem003
100
AcDbLine
 10
110.991
 20
149.497
 30
0
 11
112.504
 21
144.995
 31
0
  0
LINE
  5
38E
330
112
100
AcDbEntity
  8
ProjItem003
100
AcDbLine
 10
104.705
 20
141.989
 30
0
 11
100.745
 21
136.38
 31
0
  0
ELLIPSE
  5
38F
330
112
100
AcDbEntity
  8
ProjItem003
100
AcDbEllipse
 10
112.336
 20
150.778
 30
0
 11
1
 21
1.73205
 31
0
 40
0.57735
 41
1.41372
 42
2.67035
  0
ELLIPSE
  5
390
330
112
100
AcDbEntity
  8
ProjItem003
100
AcDbEllipse
 10
99.9137
 20
137.222
 30
0
 11
-1
 21
-1.73205
 31
0
 40
0.57735
 41
-0
 42
-4.86947
  0
LINE
  5
391
330
112
100
AcDbEntity
  8
ProjItem003
100
AcDbLine
 10
115.465
 20
157.228
 30
0
 11
111.505
 21
151.62
 31
0
  0
ELLIPSE
  5
392
330
112
100
AcDbEntity
  8
ProjItem003
100
AcDbEllipse
 10
114.634
 20
158.069
 30
0
 11
-1
 21
-1.73205
 31
0
 40
0.57735
 41
-4.86947
 42
-3.14159
  0
LINE
  5
393
330
112
100
AcDbEntity
  8
ProjItem003
100
AcDbLine
 10
96.5958
 20
145.505
 30
0
 11
95.6075
 21
145.764
 31
0
  0
ELLIPSE
  5
394
330
112
100
AcDbEntity
  8
ProjItem003
100
AcDbEllipse
 10
96.4388
 20
147.565
 30
0
 11
-1
 21
-1.73205
 31
0
 40
0.57735
 41
-0
 42
-6.12611
  0
LINE
  5
395
330
112
100
AcDbEntity
  8
ProjItem003
100
AcDbLine
 10
106.881
 20
161.73
 30
0
 11
107.563
 21
159.702
 31
0
  0
ELLIPSE
  5
396
330
112
100
AcDbEntity
  8
ProjItem003
100
AcDbEllipse
 10
105.536
 20
160.449
 30
0
 11
-1
 21
-1.73205
 31
0
 40
0.57735
 41
-3.61283
 42
-3.14159
  0
LINE
  5
397
330
112
100
AcDbEntity
  8
ProjItem003
100
AcDbLine
 10
106.792
 20
143.954
 30
0
 11
102.832
 21
144.99
 31
0
  0
ELLIPSE
  5
398
330
112
100
AcDbEntity
  8
ProjItem003
100
AcDbEllipse
 10
107.623
 20
145.755
 30
0
 11
1
 21
1.73205
 31
0
 40
0.57735
 41
3.29867
 42
5.81195
  0
ELLIPSE
  5
399
330
112
100
AcDbEntity
  8
ProjItem003
100
AcDbEllipse
 10
102.001
 20
143.189
 30
0
 11
1
 21
1.73205
 31
0
 40
0.57735
 41
0.15708
 42
1.41372
  0
LINE
  5
39A
330
112
100
AcDbEntity
  8
ProjItem003
100
AcDbLine
 10
107.456
 20
151.539
 30
0
 11
108.968
 21
147.036
 31
0
  0
LINE
  5
39B
330
112
100
AcDbEntity
  8
ProjItem003
100
AcDbLine
 10
101.169
 20
144.03
 30
0
 11
97.2094
 21
138.422
 31
0
  0
ELLIPSE
  5
39C
330
112
100
AcDbEntity
  8
ProjItem003
100
AcDbEllipse
 10
108.801
 20
152.82
 30
0
 11
1
 21
1.73205
 31
0
 40
0.57735
 41
1.41372
 42
2.67035
  0
ELLIPSE
  5
39D
330
112
100
AcDbEntity
  8
ProjItem003
100
AcDbEllipse
 10
96.3782
 20
139.263
 30
0
 11
-1
 21
-1.73205
 31
0
 40
0.57735
 41
-0
 42
-4.86947
  0
ELLIPSE
  5
39E
330
112
100
AcDbEntity
  8
ProjItem003
100
AcDbEllipse
 10
96.3782
 20
139.263
 30
0
 11
-1
 21
-1.73205
 31
0
 40
0.57735
 41
-1.09956
 42
-0
  0
LINE
  5
39F
330
112
100
AcDbEntity
  8
ProjItem003
100
AcDbLine
 10
111.929
 20
159.269
 30
0
 11
107.969
 21
153.661
 31
0
  0
LINE
  5
3A0
330
112
100
AcDbEntity
  8
ProjItem003
100
AcDbLine
 10
95.0332
 20
138.991
 30
0
 11
96.5458
 21
145.24
 31
0
  0
ELLIPSE
  5
3A1
330
112
100
AcDbEntity
  8
ProjItem003
100
AcDbEllipse
 10
111.098
 20
160.111
 30
0
 11
-1
 21
-1.73205
 31
0
 40
0.57735
 41
-3.14159
 42
-2.35619
  0
ELLIPSE
  5
3A2
330
112
100
AcDbEntity
  8
ProjItem003
100
AcDbEllipse
 10
111.098
 20
160.111
 30
0
 11
-1
 21
-1.73205
 31
0
 40
0.57735
 41
-4.86947
 42
-3.14159
  0
ELLIPSE
  5
3A3
330
112
100
AcDbEntity
  8
ProjItem003
100
AcDbEllipse
 10
95.2008
 20
144.968
 30
0
 11
1
 21
1.73205
 31
0
 40
0.57735
 41
5.18363
 42
0
  0
ELLIPSE
  5
3A4
330
112
100
AcDbEntity
  8
ProjItem003
100
AcDbEllipse
 10
95.2008
 20
144.968
 30
0
 11
1
 21
1.73205
 31
0
 40
0.57735
 41
0
 42
0.15708
  0
LINE
  5
3A5
330
112
100
AcDbEntity
  8
ProjItem003
100
AcDbLine
 10
106.203
 20
158.918
 30
0
 11
111.098
 21
161.744
 31
0
  0
LINE
  5
3A6
330
112
100
AcDbEntity
  8
ProjItem003
100
AcDbLine
 10
96.032
 20
146.769
 30
0
 11
92.072
 21
147.805
 31
0
  0
ELLIPSE
  5
3A7
330
112
100
AcDbEntity
  8
ProjItem003
100
AcDbEllipse
 10
106.203
 20
160.551
 30
0
 11
1
 21
1.73205
 31
0
 40
0.57735
 41
2.67035
 42
3.14159
  0
ELLIPSE
  5
3A8
330
112
100
AcDbEntity
  8
ProjItem003
100
AcDbEllipse
 10
106.203
 20
160.551
 30
0
 11
1
 21
1.73205
 31
0
 40
0.57735
 41
3.14159
 42
3.92699
  0
ELLIPSE
  5
3A9
330
112
100
AcDbEntity
  8
ProjItem003
100
AcDbEllipse
 10
92.9032
 20
149.606
 30
0
 11
-1
 21
-1.73205
 31
0
 40
0.57735
 41
-0
 42
-6.12611
  0
ELLIPSE
  5
3AA
330
112
100
AcDbEntity
  8
ProjItem003
100
AcDbEllipse
 10
92.9032
 20
149.606
 30
0
 11
-1
 21
-1.73205
 31
0
 40
0.57735
 41
-2.35619
 42
-0
  0
LINE
  5
3AB
330
112
100
AcDbEntity
  8
ProjItem003
100
AcDbLine
 10
103.346
 20
163.772
 30
0
 11
104.858
 21
159.269
 31
0
  0
LINE
  5
3AC
330
112
100
AcDbEntity
  8
ProjItem003
100
AcDbLine
 10
92.9032
 20
151.239
 30
0
 11
97.7981
 21
154.065
 31
0
  0
ELLIPSE
  5
3AD
330
112
100
AcDbEntity
  8
ProjItem003
100
AcDbEllipse
 10
102.001
 20
162.49
 30
0
 11
-1
 21
-1.73205
 31
0
 40
0.57735
 41
-3.14159
 42
-1.09956
  0
ELLIPSE
  5
3AE
330
112
100
AcDbEntity
  8
ProjItem003
100
AcDbEllipse
 10
102.001
 20
162.49
 30
0
 11
-1
 21
-1.73205
 31
0
 40
0.57735
 41
-3.61283
 42
-3.14159
  0
ELLIPSE
  5
3AF
330
112
100
AcDbEntity
  8
ProjItem003
100
AcDbEllipse
 10
97.7981
 20
155.698
 30
0
 11
1
 21
1.73205
 31
0
 40
0.57735
 41
3.92699
 42
5.18363
  0
LINE
  5
3B0
330
112
100
AcDbEntity
  8
ProjItem003
100
AcDbLine
 10
99.1431
 20
155.97
 30
0
 11
100.656
 21
162.219
 31
0
  0
LINE
  5
3B1
330
112
100
AcDbEntity
  8
ProjItem003
100
AcDbLine
 10
103.311
 20
151.458
 30
0
 11
103.657
 21
150.43
 31
0
  0
ELLIPSE
  5
3B2
330
112
100
AcDbEntity
  8
ProjItem003
100
AcDbEllipse
 10
103.648
 20
151.778
 30
0
 11
-0.25
 21
-0.433013
 31
0
 40
0.57735
 41
-1.72788
 42
-0.471239
  0
ELLIPSE
  5
3B3
330
112
100
AcDbEntity
  8
ProjItem003
100
AcDbEllipse
 10
103.321
 20
150.109
 30
0
 11
-0.25
 21
-0.433013
 31
0
 40
0.57735
 41
-6.12611
 42
-3.61283
  0
LINE
  5
3B4
330
112
100
AcDbEntity
  8
ProjItem003
100
AcDbLine
 10
104.344
 20
153.269
 30
0
 11
103.44
 21
151.988
 31
0
  0
LINE
  5
3B5
330
112
100
AcDbEntity
  8
ProjItem003
100
AcDbLine
 10
103.113
 20
149.659
 30
0
 11
102.209
 21
149.896
 31
0
  0
ELLIPSE
  5
3B6
330
112
100
AcDbEntity
  8
ProjItem003
100
AcDbEllipse
 10
104.136
 20
153.479
 30
0
 11
0.25
 21
0.433013
 31
0
 40
0.57735
 41
4.55531
 42
0
  0
ELLIPSE
  5
3B7
330
112
100
AcDbEntity
  8
ProjItem003
100
AcDbEllipse
 10
104.136
 20
153.479
 30
0
 11
0.25
 21
0.433013
 31
0
 40
0.57735
 41
0
 42
0.785398
  0
ELLIPSE
  5
3B8
330
112
100
AcDbEntity
  8
ProjItem003
100
AcDbEllipse
 10
102.001
 20
149.445
 30
0
 11
-0.25
 21
-0.433013
 31
0
 40
0.57735
 41
-2.98451
 42
-1.72788
  0
LINE
  5
3B9
330
112
100
AcDbEntity
  8
ProjItem003
100
AcDbLine
 10
103.019
 20
153.242
 30
0
 11
104.136
 21
153.887
 31
0
  0
LINE
  5
3BA
330
112
100
AcDbEntity
  8
ProjItem003
100
AcDbLine
 10
101.793
 20
149.656
 30
0
 11
100.889
 21
148.375
 31
0
  0
ELLIPSE
  5
3BB
330
112
100
AcDbEntity
  8
ProjItem003
100
AcDbEllipse
 10
103.019
 20
153.65
 30
0
 11
-0.25
 21
-0.433013
 31
0
 40
0.57735
 41
-0
 42
-5.49779
  0
ELLIPSE
  5
3BC
330
112
100
AcDbEntity
  8
ProjItem003
100
AcDbEllipse
 10
103.019
 20
153.65
 30
0
 11
-0.25
 21
-0.433013
 31
0
 40
0.57735
 41
-0.471239
 42
-0
  0
ELLIPSE
  5
3BD
330
112
100
AcDbEntity
  8
ProjItem003
100
AcDbEllipse
 10
100.681
 20
148.585
 30
0
 11
0.25
 21
0.433013
 31
0
 40
0.57735
 41
2.04204
 42
3.14159
  0
ELLIPSE
  5
3BE
330
112
100
AcDbEntity
  8
ProjItem003
100
AcDbEllipse
 10
100.681
 20
148.585
 30
0
 11
0.25
 21
0.433013
 31
0
 40
0.57735
 41
3.14159
 42
4.55531
  0
LINE
  5
3BF
330
112
100
AcDbEntity
  8
ProjItem003
100
AcDbLine
 10
102.337
 20
154.358
 30
0
 11
102.682
 21
153.33
 31
0
  0
LINE
  5
3C0
330
112
100
AcDbEntity
  8
ProjItem003
100
AcDbLine
 10
100.345
 20
148.517
 30
0
 11
100.69
 21
149.944
 31
0
  0
ELLIPSE
  5
3C1
330
112
100
AcDbEntity
  8
ProjItem003
100
AcDbEllipse
 10
102.001
 20
154.038
 30
0
 11
0.25
 21
0.433013
 31
0
 40
0.57735
 41
5.81195
 42
0
  0
ELLIPSE
  5
3C2
330
112
100
AcDbEntity
  8
ProjItem003
100
AcDbEllipse
 10
102.001
 20
154.038
 30
0
 11
0.25
 21
0.433013
 31
0
 40
0.57735
 41
0
 42
2.04204
  0
ELLIPSE
  5
3C3
330
112
100
AcDbEntity
  8
ProjItem003
100
AcDbEllipse
 10
100.354
 20
149.876
 30
0
 11
-0.25
 21
-0.433013
 31
0
 40
0.57735
 41
-3.14159
 42
-2.98451
  0
ELLIPSE
  5
3C4
330
112
100
AcDbEntity
  8
ProjItem003
100
AcDbEllipse
 10
100.354
 20
149.876
 30
0
 11
-0.25
 21
-0.433013
 31
0
 40
0.57735
 41
-4.24115
 42
-3.14159
  0
LINE
  5
3C5
330
112
100
AcDbEntity
  8
ProjItem003
100
AcDbLine
 10
101.319
 20
152.543
 30
0
 11
101.664
 21
153.97
 31
0
  0
LINE
  5
3C6
330
112
100
AcDbEntity
  8
ProjItem003
100
AcDbLine
 10
100.562
 20
150.326
 30
0
 11
99.6573
 21
150.563
 31
0
  0
ELLIPSE
  5
3C7
330
112
100
AcDbEntity
  8
ProjItem003
100
AcDbEllipse
 10
100.983
 20
152.475
 30
0
 11
-0.25
 21
-0.433013
 31
0
 40
0.57735
 41
-5.49779
 42
-4.24115
  0
ELLIPSE
  5
3C8
330
112
100
AcDbEntity
  8
ProjItem003
100
AcDbEllipse
 10
99.8651
 20
151.013
 30
0
 11
0.25
 21
0.433013
 31
0
 40
0.57735
 41
0.785398
 42
3.14159
  0
ELLIPSE
  5
3C9
330
112
100
AcDbEntity
  8
ProjItem003
100
AcDbEllipse
 10
99.8651
 20
151.013
 30
0
 11
0.25
 21
0.433013
 31
0
 40
0.57735
 41
3.14159
 42
3.29867
  0
LINE
  5
3CA
330
112
100
AcDbEntity
  8
ProjItem003
100
AcDbLine
 10
99.8651
 20
151.422
 30
0
 11
100.983
 21
152.067
 31
0
  0
ELLIPSE
  5
3CB
330
112
100
AcDbEntity
  8
ProjItem003
100
AcDbEllipse
 10
102.001
 20
162.49
 30
0
 11
0.5
 21
0.866025
 31
0
 40
0.57735
 41
2.35619
 42
3.14159
  0
ELLIPSE
  5
3CC
330
112
100
AcDbEntity
  8
ProjItem003
100
AcDbEllipse
 10
102.001
 20
162.49
 30
0
 11
0.5
 21
0.866025
 31
0
 40
0.57735
 41
3.14159
 42
0
  0
ELLIPSE
  5
3CD
330
112
100
AcDbEntity
  8
ProjItem003
100
AcDbEllipse
 10
102.001
 20
162.49
 30
0
 11
0.5
 21
0.866025
 31
0
 40
0.57735
 41
0
 42
2.35619
  0
LINE
  5
3CE
330
112
100
AcDbEntity
  8
ProjItem003
100
AcDbLine
 10
98.9137
 20
135.49
 30
0
 11
95.3782
 21
137.531
 31
0
  0
LINE
  5
3CF
330
112
100
AcDbEntity
  8
ProjItem003
100
AcDbLine
 10
115.634
 20
159.801
 30
0
 11
112.098
 21
161.843
 31
0
  0
LINE
  5
3D0
330
112
100
AcDbEntity
  8
ProjItem003
100
AcDbLine
 10
95.4388
 20
145.833
 30
0
 11
91.9032
 21
147.874
 31
0
  0
LINE
  5
3D1
330
112
100
AcDbEntity
  8
ProjItem003
100
AcDbLine
 10
106.536
 20
162.181
 30
0
 11
103.001
 21
164.223
 31
0
  0
LINE
  5
3D2
330
112
100
AcDbEntity
  8
ProjItem003
100
AcDbLine
 10
103.862
 20
152.586
 30
0
 11
102.769
 21
153.217
 31
0
  0
LINE
  5
3D3
330
112
100
AcDbEntity
  8
ProjItem003
100
AcDbLine
 10
101.776
 20
149.632
 30
0
 11
100.604
 21
150.309
 31
0
  0
SPLINE
  5
3D4
330
112
100
AcDbEntity
  8
ProjItem004
100
AcDbSpline
210
0
220
0
230
1
 70
8
 71
2
 72
28
 73
25
 74
0
 40
3.14159
 40
3.14159
 40
3.14159
 40
3.27623
 40
3.27623
 40
3.41087
 40
3.41087
 40
3.54551
 40
3.54551
 40
3.68015
 40
3.68015
 40
3.81479
 40
3.81479
 40
3.94943
 40
3.94943
 40
4.08407
 40
4.08407
 40
4.21871
 40
4.21871
 40
4.35335
 40
4.35335
 40
4.48799
 40
4.48799
 40
4.75727
 40
4.75727
 40
5.02655
 40
5.02655
 40
5.02655
 10
106.268
 20
90.7639
 30
0
 10
106.268
 20
90.773
 30
0
 10
106.268
 20
90.782
 30
0
 10
106.268
 20
90.809
 30
0
 10
106.268
 20
90.836
 30
0
 10
106.268
 20
90.8804
 30
0
 10
106.268
 20
90.9249
 30
0
 10
106.268
 20
90.986
 30
0
 10
106.268
 20
91.047
 30
0
 10
106.268
 20
91.1237
 30
0
 10
106.268
 20
91.2003
 30
0
 10
106.268
 20
91.291
 30
0
 10
106.268
 20
91.3818
 30
0
 10
106.268
 20
91.4851
 30
0
 10
106.268
 20
91.5884
 30
0
 10
106.268
 20
91.7023
 30
0
 10
106.268
 20
91.8162
 30
0
 10
106.268
 20
91.9387
 30
0
 10
106.268
 20
92.0612
 30
0
 10
106.268
 20
92.19
 30
0
 10
106.268
 20
92.3189
 30
0
 10
106.268
 20
92.5837
 30
0
 10
106.268
 20
92.8537
 30
0
 10
106.268
 20
93.1229
 30
0
 10
106.268
 20
93.382
 30
0
  0
LINE
  5
3D5
330
112
100
AcDbEntity
  8
ProjItem004
100
AcDbLine
 10
106.268
 20
99.9656
 30
0
 11
106.268
 21
93.382
 31
0
  0
SPLINE
  5
3D6
330
112
100
AcDbEntity
  8
ProjItem004
100
AcDbSpline
210
0
220
0
230
1
 70
8
 71
3
 72
26
 73
22
 74
0
 40
0.628319
 40
0.628319
 40
0.628319
 40
0.628319
 40
0.718078
 40
0.718078
 40
0.718078
 40
0.807838
 40
0.807838
 40
0.807838
 40
0.897598
 40
0.897598
 40
0.897598
 40
0.987358
 40
0.987358
 40
0.987358
 40
1.07712
 40
1.07712
 40
1.07712
 40
1.25664
 40
1.25664
 40
1.25664
 40
1.88496
 40
1.88496
 40
1.88496
 40
1.88496
 10
106.268
 20
102.202
 30
0
 10
106.268
 20
102.164
 30
0
 10
106.268
 20
102.127
 30
0
 10
106.268
 20
102.09
 30
0
 10
106.268
 20
102.048
 30
0
 10
106.268
 20
102.007
 30
0
 10
106.268
 20
101.966
 30
0
 10
106.268
 20
101.921
 30
0
 10
106.268
 20
101.876
 30
0
 10
106.268
 20
101.831
 30
0
 10
106.268
 20
101.782
 30
0
 10
106.268
 20
101.734
 30
0
 10
106.268
 20
101.685
 30
0
 10
106.268
 20
101.634
 30
0
 10
106.268
 20
101.583
 30
0
 10
106.268
 20
101.531
 30
0
 10
106.268
 20
101.425
 30
0
 10
106.268
 20
101.315
 30
0
 10
106.268
 20
101.202
 30
0
 10
106.268
 20
100.802
 30
0
 10
106.268
 20
100.365
 30
0
 10
106.268
 20
99.9656
 30
0
  0
LINE
  5
3D7
330
112
100
AcDbEntity
  8
ProjItem004
100
AcDbLine
 10
106.268
 20
106.271
 30
0
 11
106.268
 21
102.202
 31
0
  0
SPLINE
  5
3D8
330
112
100
AcDbEntity
  8
ProjItem004
100
AcDbSpline
210
0
220
0
230
1
 70
8
 71
2
 72
30
 73
27
 74
0
 40
0
 40
0
 40
0
 40
0.17952
 40
0.17952
 40
0.359039
 40
0.359039
 40
0.538559
 40
0.538559
 40
0.718078
 40
0.718078
 40
0.897598
 40
0.897598
 40
1.07712
 40
1.07712
 40
1.25664
 40
1.25664
 40
1.43616
 40
1.43616
 40
1.7952
 40
1.7952
 40
1.97472
 40
1.97472
 40
2.15423
 40
2.15423
 40
2.33375
 40
2.33375
 40
2.51327
 40
2.51327
 40
2.51327
 10
106.268
 20
109.889
 30
0
 10
106.268
 20
109.872
 30
0
 10
106.268
 20
109.856
 30
0
 10
106.268
 20
109.809
 30
0
 10
106.268
 20
109.761
 30
0
 10
106.268
 20
109.683
 30
0
 10
106.268
 20
109.605
 30
0
 10
106.268
 20
109.5
 30
0
 10
106.268
 20
109.395
 30
0
 10
106.268
 20
109.265
 30
0
 10
106.268
 20
109.136
 30
0
 10
106.268
 20
108.986
 30
0
 10
106.268
 20
108.836
 30
0
 10
106.268
 20
108.671
 30
0
 10
106.268
 20
108.507
 30
0
 10
106.268
 20
108.332
 30
0
 10
106.268
 20
108.157
 30
0
 10
106.268
 20
107.798
 30
0
 10
106.268
 20
107.444
 30
0
 10
106.268
 20
107.273
 30
0
 10
106.268
 20
107.102
 30
0
 10
106.268
 20
106.945
 30
0
 10
106.268
 20
106.787
 30
0
 10
106.268
 20
106.647
 30
0
 10
106.268
 20
106.506
 30
0
 10
106.268
 20
106.388
 30
0
 10
106.268
 20
106.271
 30
0
  0
SPLINE
  5
3D9
330
112
100
AcDbEntity
  8
ProjItem004
100
AcDbSpline
210
0
220
0
230
1
 70
8
 71
2
 72
30
 73
27
 74
0
 40
1.88496
 40
1.88496
 40
1.88496
 40
1.97472
 40
1.97472
 40
2.15423
 40
2.15423
 40
2.24399
 40
2.24399
 40
2.33375
 40
2.33375
 40
2.42351
 40
2.42351
 40
2.51327
 40
2.51327
 40
2.60303
 40
2.60303
 40
2.69279
 40
2.69279
 40
2.78255
 40
2.78255
 40
2.87231
 40
2.87231
 40
2.96207
 40
2.96207
 40
3.05183
 40
3.05183
 40
3.14159
 40
3.14159
 40
3.14159
 10
106.268
 20
111.271
 30
0
 10
106.268
 20
111.187
 30
0
 10
106.268
 20
111.102
 30
0
 10
106.268
 20
110.939
 30
0
 10
106.268
 20
110.787
 30
0
 10
106.268
 20
110.714
 30
0
 10
106.268
 20
110.642
 30
0
 10
106.268
 20
110.574
 30
0
 10
106.268
 20
110.506
 30
0
 10
106.268
 20
110.444
 30
0
 10
106.268
 20
110.382
 30
0
 10
106.268
 20
110.326
 30
0
 10
106.268
 20
110.271
 30
0
 10
106.268
 20
110.221
 30
0
 10
106.268
 20
110.172
 30
0
 10
106.268
 20
110.129
 30
0
 10
106.268
 20
110.087
 30
0
 10
106.268
 20
110.051
 30
0
 10
106.268
 20
110.016
 30
0
 10
106.268
 20
109.988
 30
0
 10
106.268
 20
109.961
 30
0
 10
106.268
 20
109.941
 30
0
 10
106.268
 20
109.921
 30
0
 10
106.268
 20
109.909
 30
0
 10
106.268
 20
109.897
 30
0
 10
106.268
 20
109.893
 30
0
 10
106.268
 20
109.889
 30
0
  0
LINE
  5
3DA
330
112
100
AcDbEntity
  8
ProjItem004
100
AcDbLine
 10
106.268
 20
117.854
 30
0
 11
106.268
 21
111.271
 31
0
  0
SPLINE
  5
3DB
330
112
100
AcDbEntity
  8
ProjItem004
100
AcDbSpline
210
0
220
0
230
1
 70
8
 71
2
 72
30
 73
27
 74
0
 40
6.28319
 40
6.28319
 40
6.28319
 40
6.37295
 40
6.37295
 40
6.4627
 40
6.4627
 40
6.55246
 40
6.55246
 40
6.64222
 40
6.64222
 40
6.73198
 40
6.73198
 40
6.82174
 40
6.82174
 40
6.9115
 40
6.9115
 40
7.00126
 40
7.00126
 40
7.09102
 40
7.09102
 40
7.18078
 40
7.18078
 40
7.27054
 40
7.27054
 40
7.3603
 40
7.3603
 40
7.53982
 40
7.53982
 40
7.53982
 10
106.268
 20
119.236
 30
0
 10
106.268
 20
119.232
 30
0
 10
106.268
 20
119.228
 30
0
 10
106.268
 20
119.216
 30
0
 10
106.268
 20
119.204
 30
0
 10
106.268
 20
119.184
 30
0
 10
106.268
 20
119.164
 30
0
 10
106.268
 20
119.136
 30
0
 10
106.268
 20
119.109
 30
0
 10
106.268
 20
119.073
 30
0
 10
106.268
 20
119.038
 30
0
 10
106.268
 20
118.995
 30
0
 10
106.268
 20
118.953
 30
0
 10
106.268
 20
118.904
 30
0
 10
106.268
 20
118.854
 30
0
 10
106.268
 20
118.798
 30
0
 10
106.268
 20
118.742
 30
0
 10
106.268
 20
118.68
 30
0
 10
106.268
 20
118.618
 30
0
 10
106.268
 20
118.551
 30
0
 10
106.268
 20
118.483
 30
0
 10
106.268
 20
118.41
 30
0
 10
106.268
 20
118.338
 30
0
 10
106.268
 20
118.261
 30
0
 10
106.268
 20
118.184
 30
0
 10
106.268
 20
118.024
 30
0
 10
106.268
 20
117.854
 30
0
  0
SPLINE
  5
3DC
330
112
100
AcDbEntity
  8
ProjItem004
100
AcDbSpline
210
0
220
0
230
1
 70
8
 71
2
 72
28
 73
25
 74
0
 40
3.14159
 40
3.14159
 40
3.14159
 40
3.27623
 40
3.27623
 40
3.41087
 40
3.41087
 40
3.54551
 40
3.54551
 40
3.68015
 40
3.68015
 40
3.81479
 40
3.81479
 40
3.94943
 40
3.94943
 40
4.08407
 40
4.08407
 40
4.21871
 40
4.21871
 40
4.35335
 40
4.35335
 40
4.48799
 40
4.48799
 40
4.75727
 40
4.75727
 40
5.02655
 40
5.02655
 40
5.02655
 10
101.268
 20
90.7639
 30
0
 10
101.268
 20
90.773
 30
0
 10
101.268
 20
90.782
 30
0
 10
101.268
 20
90.809
 30
0
 10
101.268
 20
90.836
 30
0
 10
101.268
 20
90.8804
 30
0
 10
101.268
 20
90.9249
 30
0
 10
101.268
 20
90.986
 30
0
 10
101.268
 20
91.047
 30
0
 10
101.268
 20
91.1237
 30
0
 10
101.268
 20
91.2003
 30
0
 10
101.268
 20
91.291
 30
0
 10
101.268
 20
91.3818
 30
0
 10
101.268
 20
91.4851
 30
0
 10
101.268
 20
91.5884
 30
0
 10
101.268
 20
91.7023
 30
0
 10
101.268
 20
91.8162
 30
0
 10
101.268
 20
91.9387
 30
0
 10
101.268
 20
92.0612
 30
0
 10
101.268
 20
92.19
 30
0
 10
101.268
 20
92.3189
 30
0
 10
101.268
 20
92.5837
 30
0
 10
101.268
 20
92.8537
 30
0
 10
101.268
 20
93.1229
 30
0
 10
101.268
 20
93.382
 30
0
  0
LINE
  5
3DD
330
112
100
AcDbEntity
  8
ProjItem004
100
AcDbLine
 10
101.268
 20
99.9656
 30
0
 11
101.268
 21
93.382
 31
0
  0
SPLINE
  5
3DE
330
112
100
AcDbEntity
  8
ProjItem004
100
AcDbSpline
210
0
220
0
230
1
 70
8
 71
3
 72
26
 73
22
 74
0
 40
0.628319
 40
0.628319
 40
0.628319
 40
0.628319
 40
0.718078
 40
0.718078
 40
0.718078
 40
0.807838
 40
0.807838
 40
0.807838
 40
0.897598
 40
0.897598
 40
0.897598
 40
0.987358
 40
0.987358
 40
0.987358
 40
1.07712
 40
1.07712
 40
1.07712
 40
1.25664
 40
1.25664
 40
1.25664
 40
1.88496
 40
1.88496
 40
1.88496
 40
1.88496
 10
101.268
 20
102.202
 30
0
 10
101.268
 20
102.164
 30
0
 10
101.268
 20
102.127
 30
0
 10
101.268
 20
102.09
 30
0
 10
101.268
 20
102.048
 30
0
 10
101.268
 20
102.007
 30
0
 10
101.268
 20
101.966
 30
0
 10
101.268
 20
101.921
 30
0
 10
101.268
 20
101.876
 30
0
 10
101.268
 20
101.831
 30
0
 10
101.268
 20
101.782
 30
0
 10
101.268
 20
101.734
 30
0
 10
101.268
 20
101.685
 30
0
 10
101.268
 20
101.634
 30
0
 10
101.268
 20
101.583
 30
0
 10
101.268
 20
101.531
 30
0
 10
101.268
 20
101.425
 30
0
 10
101.268
 20
101.315
 30
0
 10
101.268
 20
101.202
 30
0
 10
101.268
 20
100.802
 30
0
 10
101.268
 20
100.365
 30
0
 10
101.268
 20
99.9656
 30
0
  0
LINE
  5
3DF
330
112
100
AcDbEntity
  8
ProjItem004
100
AcDbLine
 10
101.268
 20
106.271
 30
0
 11
101.268
 21
102.202
 31
0
  0
LINE
  5
3E0
330
112
100
AcDbEntity
  8
ProjItem004
100
AcDbLine
 10
106.268
 20
109.889
 30
0
 11
101.268
 21
109.889
 31
0
  0
SPLINE
  5
3E1
330
112
100
AcDbEntity
  8
ProjItem004
100
AcDbSpline
210
0
220
0
230
1
 70
8
 71
2
 72
30
 73
27
 74
0
 40
0
 40
0
 40
0
 40
0.17952
 40
0.17952
 40
0.359039
 40
0.359039
 40
0.538559
 40
0.538559
 40
0.718078
 40
0.718078
 40
0.897598
 40
0.897598
 40
1.07712
 40
1.07712
 40
1.25664
 40
1.25664
 40
1.43616
 40
1.43616
 40
1.7952
 40
1.7952
 40
1.97472
 40
1.97472
 40
2.15423
 40
2.15423
 40
2.33375
 40
2.33375
 40
2.51327
 40
2.51327
 40
2.51327
 10
101.268
 20
109.889
 30
0
 10
101.268
 20
109.872
 30
0
 10
101.268
 20
109.856
 30
0
 10
101.268
 20
109.809
 30
0
 10
101.268
 20
109.761
 30
0
 10
101.268
 20
109.683
 30
0
 10
101.268
 20
109.605
 30
0
 10
101.268
 20
109.5
 30
0
 10
101.268
 20
109.395
 30
0
 10
101.268
 20
109.265
 30
0
 10
101.268
 20
109.136
 30
0
 10
101.268
 20
108.986
 30
0
 10
101.268
 20
108.836
 30
0
 10
101.268
 20
108.671
 30
0
 10
101.268
 20
108.507
 30
0
 10
101.268
 20
108.332
 30
0
 10
101.268
 20
108.157
 30
0
 10
101.268
 20
107.798
 30
0
 10
101.268
 20
107.444
 30
0
 10
101.268
 20
107.273
 30
0
 10
101.268
 20
107.102
 30
0
 10
101.268
 20
106.945
 30
0
 10
101.268
 20
106.787
 30
0
 10
101.268
 20
106.647
 30
0
 10
101.268
 20
106.506
 30
0
 10
101.268
 20
106.388
 30
0
 10
101.268
 20
106.271
 30
0
  0
SPLINE
  5
3E2
330
112
100
AcDbEntity
  8
ProjItem004
100
AcDbSpline
210
0
220
0
230
1
 70
8
 71
2
 72
30
 73
27
 74
0
 40
1.88496
 40
1.88496
 40
1.88496
 40
1.97472
 40
1.97472
 40
2.15423
 40
2.15423
 40
2.24399
 40
2.24399
 40
2.33375
 40
2.33375
 40
2.42351
 40
2.42351
 40
2.51327
 40
2.51327
 40
2.60303
 40
2.60303
 40
2.69279
 40
2.69279
 40
2.78255
 40
2.78255
 40
2.87231
 40
2.87231
 40
2.96207
 40
2.96207
 40
3.05183
 40
3.05183
 40
3.14159
 40
3.14159
 40
3.14159
 10
101.268
 20
111.271
 30
0
 10
101.268
 20
111.187
 30
0
 10
101.268
 20
111.102
 30
0
 10
101.268
 20
110.939
 30
0
 10
101.268
 20
110.787
 30
0
 10
101.268
 20
110.714
 30
0
 10
101.268
 20
110.642
 30
0
 10
101.268
 20
110.574
 30
0
 10
101.268
 20
110.506
 30
0
 10
101.268
 20
110.444
 30
0
 10
101.268
 20
110.382
 30
0
 10
101.268
 20
110.326
 30
0
 10
101.268
 20
110.271
 30
0
 10
101.268
 20
110.221
 30
0
 10
101.268
 20
110.172
 30
0
 10
101.268
 20
110.129
 30
0
 10
101.268
 20
110.087
 30
0
 10
101.268
 20
110.051
 30
0
 10
101.268
 20
110.016
 30
0
 10
101.268
 20
109.988
 30
0
 10
101.268
 20
109.961
 30
0
 10
101.268
 20
109.941
 30
0
 10
101.268
 20
109.921
 30
0
 10
101.268
 20
109.909
 30
0
 10
101.268
 20
109.897
 30
0
 10
101.268
 20
109.893
 30
0
 10
101.268
 20
109.889
 30
0
  0
LINE
  5
3E3
330
112
100
AcDbEntity
  8
ProjItem004
100
AcDbLine
 10
101.268
 20
117.854
 30
0
 11
101.268
 21
111.271
 31
0
  0
SPLINE
  5
3E4
330
112
100
AcDbEntity
  8
ProjItem004
100
AcDbSpline
210
0
220
0
230
1
 70
8
 71
2
 72
30
 73
27
 74
0
 40
6.28319
 40
6.28319
 40
6.28319
 40
6.37295
 40
6.37295
 40
6.4627
 40
6.4627
 40
6.55246
 40
6.55246
 40
6.64222
 40
6.64222
 40
6.73198
 40
6.73198
 40
6.82174
 40
6.82174
 40
6.9115
 40
6.9115
 40
7.00126
 40
7.00126
 40
7.09102
 40
7.09102
 40
7.18078
 40
7.18078
 40
7.27054
 40
7.27054
 40
7.3603
 40
7.3603
 40
7.53982
 40
7.53982
 40
7.53982
 10
101.268
 20
119.236
 30
0
 10
101.268
 20
119.232
 30
0
 10
101.268
 20
119.228
 30
0
 10
101.268
 20
119.216
 30
0
 10
101.268
 20
119.204
 30
0
 10
101.268
 20
119.184
 30
0
 10
101.268
 20
119.164
 30
0
 10
101.268
 20
119.136
 30
0
 10
101.268
 20
119.109
 30
0
 10
101.268
 20
119.073
 30
0
 10
101.268
 20
119.038
 30
0
 10
101.268
 20
118.995
 30
0
 10
101.268
 20
118.953
 30
0
 10
101.268
 20
118.904
 30
0
 10
101.268
 20
118.854
 30
0
 10
101.268
 20
118.798
 30
0
 10
101.268
 20
118.742
 30
0
 10
101.268
 20
118.68
 30
0
 10
101.268
 20
118.618
 30
0
 10
101.268
 20
118.551
 30
0
 10
101.268
 20
118.483
 30
0
 10
101.268
 20
118.41
 30
0
 10
101.268
 20
118.338
 30
0
 10
101.268
 20
118.261
 30
0
 10
101.268
 20
118.184
 30
0
 10
101.268
 20
118.024
 30
0
 10
101.268
 20
117.854
 30
0
  0
LINE
  5
3E5
330
112
100
AcDbEntity
  8
ProjItem004
100
AcDbLine
 10
106.268
 20
90.7639
 30
0
 11
101.268
 21
90.7639
 31
0
  0
LINE
  5
3E6
330
112
100
AcDbEntity
  8
ProjItem004
100
AcDbLine
 10
106.268
 20
119.236
 30
0
 11
101.268
 21
119.236
 31
0
  0
ELLIPSE
  5
3E7
330
112
100
AcDbEntity
  8
ProjItem005
100
AcDbEllipse
 10
111.159
 20
49.7998
 30
0
 11
-1
 21
1.73205
 31
0
 40
0.57735
 41
3.14159
 42
4.24115
  0
LINE
  5
3E8
330
112
100
AcDbEntity
  8
ProjItem005
100
AcDbLine
 10
110.991
 20
55.7767
 30
0
 11
112.504
 21
49.5279
 31
0
  0
ELLIPSE
  5
3E9
330
112
100
AcDbEntity
  8
ProjItem005
100
AcDbEllipse
 10
112.336
 20
55.5048
 30
0
 11
-1
 21
1.73205
 31
0
 40
0.57735
 41
0.950397
 42
1.09956
  0
ELLIPSE
  5
3EA
330
112
100
AcDbEntity
  8
ProjItem005
100
AcDbEllipse
 10
114.634
 20
60.1428
 30
0
 11
1
 21
-1.73205
 31
0
 40
0.57735
 41
-0
 42
-3.92699
  0
LINE
  5
3EB
330
112
100
AcDbEntity
  8
ProjItem005
100
AcDbLine
 10
109.739
 20
64.6018
 30
0
 11
114.634
 21
61.7758
 31
0
  0
ELLIPSE
  5
3EC
330
112
100
AcDbEntity
  8
ProjItem005
100
AcDbEllipse
 10
109.739
 20
66.2348
 30
0
 11
-1
 21
1.73205
 31
0
 40
0.57735
 41
1.09956
 42
2.35619
  0
ELLIPSE
  5
3ED
330
112
100
AcDbEntity
  8
ProjItem005
100
AcDbEllipse
 10
96.4388
 20
70.6476
 30
0
 11
1
 21
-1.73205
 31
0
 40
0.57735
 41
-3.92699
 42
-3.14159
  0
LINE
  5
3EE
330
112
100
AcDbEntity
  8
ProjItem005
100
AcDbLine
 10
106.881
 20
72.7555
 30
0
 11
108.394
 21
66.5067
 31
0
  0
LINE
  5
3EF
330
112
100
AcDbEntity
  8
ProjItem005
100
AcDbLine
 10
96.4388
 20
72.2806
 30
0
 11
99.9744
 21
70.2393
 31
0
  0
ELLIPSE
  5
3F0
330
112
100
AcDbEntity
  8
ProjItem005
100
AcDbEllipse
 10
105.536
 20
73.0274
 30
0
 11
1
 21
-1.73205
 31
0
 40
0.57735
 41
-5.18363
 42
-3.14159
  0
LINE
  5
3F1
330
112
100
AcDbEntity
  8
ProjItem005
100
AcDbLine
 10
106.792
 20
46.9174
 30
0
 11
102.832
 21
52.5259
 31
0
  0
ELLIPSE
  5
3F2
330
112
100
AcDbEntity
  8
ProjItem005
100
AcDbEllipse
 10
107.623
 20
47.7586
 30
0
 11
-1
 21
1.73205
 31
0
 40
0.57735
 41
1.72788
 42
3.14159
  0
ELLIPSE
  5
3F3
330
112
100
AcDbEntity
  8
ProjItem005
100
AcDbEllipse
 10
107.623
 20
47.7586
 30
0
 11
-1
 21
1.73205
 31
0
 40
0.57735
 41
3.14159
 42
4.24115
  0
ELLIPSE
  5
3F4
330
112
100
AcDbEntity
  8
ProjItem005
100
AcDbEllipse
 10
102.001
 20
51.6847
 30
0
 11
-1
 21
1.73205
 31
0
 40
0.57735
 41
4.86947
 42
6.12611
  0
LINE
  5
3F5
330
112
100
AcDbEntity
  8
ProjItem005
100
AcDbLine
 10
107.456
 20
53.7354
 30
0
 11
108.968
 21
47.4867
 31
0
  0
LINE
  5
3F6
330
112
100
AcDbEntity
  8
ProjItem005
100
AcDbLine
 10
101.169
 20
53.4858
 30
0
 11
97.2094
 21
52.4499
 31
0
  0
ELLIPSE
  5
3F7
330
112
100
AcDbEntity
  8
ProjItem005
100
AcDbEllipse
 10
108.801
 20
53.4635
 30
0
 11
-1
 21
1.73205
 31
0
 40
0.57735
 41
6.12611
 42
0
  0
ELLIPSE
  5
3F8
330
112
100
AcDbEntity
  8
ProjItem005
100
AcDbEllipse
 10
108.801
 20
53.4635
 30
0
 11
-1
 21
1.73205
 31
0
 40
0.57735
 41
0
 42
1.09956
  0
ELLIPSE
  5
3F9
330
112
100
AcDbEntity
  8
ProjItem005
100
AcDbEllipse
 10
96.3782
 20
54.2509
 30
0
 11
1
 21
-1.73205
 31
0
 40
0.57735
 41
-2.67035
 42
-0.15708
  0
LINE
  5
3FA
330
112
100
AcDbEntity
  8
ProjItem005
100
AcDbLine
 10
111.929
 20
56.3005
 30
0
 11
107.969
 21
55.2646
 31
0
  0
LINE
  5
3FB
330
112
100
AcDbEntity
  8
ProjItem005
100
AcDbLine
 10
95.0332
 20
55.5321
 30
0
 11
96.5458
 21
60.0343
 31
0
  0
ELLIPSE
  5
3FC
330
112
100
AcDbEntity
  8
ProjItem005
100
AcDbEllipse
 10
111.098
 20
58.1015
 30
0
 11
1
 21
-1.73205
 31
0
 40
0.57735
 41
-0
 42
-3.92699
  0
ELLIPSE
  5
3FD
330
112
100
AcDbEntity
  8
ProjItem005
100
AcDbEllipse
 10
111.098
 20
58.1015
 30
0
 11
1
 21
-1.73205
 31
0
 40
0.57735
 41
-0.15708
 42
-0
  0
ELLIPSE
  5
3FE
330
112
100
AcDbEntity
  8
ProjItem005
100
AcDbEllipse
 10
95.2008
 20
61.3154
 30
0
 11
-1
 21
1.73205
 31
0
 40
0.57735
 41
3.61283
 42
4.86947
  0
LINE
  5
3FF
330
112
100
AcDbEntity
  8
ProjItem005
100
AcDbLine
 10
106.203
 20
62.5606
 30
0
 11
111.098
 21
59.7345
 31
0
  0
LINE
  5
400
330
112
100
AcDbEntity
  8
ProjItem005
100
AcDbLine
 10
96.032
 20
62.1566
 30
0
 11
92.072
 21
67.7652
 31
0
  0
ELLIPSE
  5
401
330
112
100
AcDbEntity
  8
ProjItem005
100
AcDbEllipse
 10
106.203
 20
64.1936
 30
0
 11
-1
 21
1.73205
 31
0
 40
0.57735
 41
1.09956
 42
2.35619
  0
ELLIPSE
  5
402
330
112
100
AcDbEntity
  8
ProjItem005
100
AcDbEllipse
 10
92.9032
 20
68.6064
 30
0
 11
1
 21
-1.73205
 31
0
 40
0.57735
 41
-3.14159
 42
-1.41372
  0
ELLIPSE
  5
403
330
112
100
AcDbEntity
  8
ProjItem005
100
AcDbEllipse
 10
92.9032
 20
68.6064
 30
0
 11
1
 21
-1.73205
 31
0
 40
0.57735
 41
-3.92699
 42
-3.14159
  0
LINE
  5
404
330
112
100
AcDbEntity
  8
ProjItem005
100
AcDbLine
 10
103.346
 20
70.7143
 30
0
 11
104.858
 21
64.4655
 31
0
  0
LINE
  5
405
330
112
100
AcDbEntity
  8
ProjItem005
100
AcDbLine
 10
92.9032
 20
70.2394
 30
0
 11
97.7981
 21
67.4133
 31
0
  0
ELLIPSE
  5
406
330
112
100
AcDbEntity
  8
ProjItem005
100
AcDbEllipse
 10
102.001
 20
70.9862
 30
0
 11
1
 21
-1.73205
 31
0
 40
0.57735
 41
-3.14159
 42
-2.67035
  0
ELLIPSE
  5
407
330
112
100
AcDbEntity
  8
ProjItem005
100
AcDbEllipse
 10
102.001
 20
70.9862
 30
0
 11
1
 21
-1.73205
 31
0
 40
0.57735
 41
-5.18363
 42
-3.14159
  0
ELLIPSE
  5
408
330
112
100
AcDbEntity
  8
ProjItem005
100
AcDbEllipse
 10
97.7981
 20
69.0463
 30
0
 11
-1
 21
1.73205
 31
0
 40
0.57735
 41
2.35619
 42
3.14159
  0
ELLIPSE
  5
409
330
112
100
AcDbEntity
  8
ProjItem005
100
AcDbEllipse
 10
97.7981
 20
69.0463
 30
0
 11
-1
 21
1.73205
 31
0
 40
0.57735
 41
3.14159
 42
3.61283
  0
LINE
  5
40A
330
112
100
AcDbEntity
  8
ProjItem005
100
AcDbLine
 10
99.1431
 20
67.7651
 30
0
 11
100.656
 21
72.2673
 31
0
  0
LINE
  5
40B
330
112
100
AcDbEntity
  8
ProjItem005
100
AcDbLine
 10
103.311
 20
58.4399
 30
0
 11
103.657
 21
57.013
 31
0
  0
ELLIPSE
  5
40C
330
112
100
AcDbEntity
  8
ProjItem005
100
AcDbEllipse
 10
103.648
 20
58.3719
 30
0
 11
0.25
 21
-0.433013
 31
0
 40
0.57735
 41
-3.14159
 42
-2.04204
  0
ELLIPSE
  5
40D
330
112
100
AcDbEntity
  8
ProjItem005
100
AcDbEllipse
 10
103.648
 20
58.3719
 30
0
 11
0.25
 21
-0.433013
 31
0
 40
0.57735
 41
-3.29867
 42
-3.14159
  0
ELLIPSE
  5
40E
330
112
100
AcDbEntity
  8
ProjItem005
100
AcDbEllipse
 10
103.321
 20
57.081
 30
0
 11
0.25
 21
-0.433013
 31
0
 40
0.57735
 41
-0
 42
-5.18363
  0
ELLIPSE
  5
40F
330
112
100
AcDbEntity
  8
ProjItem005
100
AcDbEllipse
 10
103.321
 20
57.081
 30
0
 11
0.25
 21
-0.433013
 31
0
 40
0.57735
 41
-1.41372
 42
-0
  0
LINE
  5
410
330
112
100
AcDbEntity
  8
ProjItem005
100
AcDbLine
 10
104.344
 20
59.0587
 30
0
 11
103.44
 21
58.8222
 31
0
  0
LINE
  5
411
330
112
100
AcDbEntity
  8
ProjItem005
100
AcDbLine
 10
103.113
 20
56.8707
 30
0
 11
102.209
 21
58.1514
 31
0
  0
ELLIPSE
  5
412
330
112
100
AcDbEntity
  8
ProjItem005
100
AcDbEllipse
 10
104.136
 20
59.509
 30
0
 11
-0.25
 21
0.433013
 31
0
 40
0.57735
 41
2.98451
 42
3.14159
  0
ELLIPSE
  5
413
330
112
100
AcDbEntity
  8
ProjItem005
100
AcDbEllipse
 10
104.136
 20
59.509
 30
0
 11
-0.25
 21
0.433013
 31
0
 40
0.57735
 41
3.14159
 42
5.49779
  0
ELLIPSE
  5
414
330
112
100
AcDbEntity
  8
ProjItem005
100
AcDbEllipse
 10
102.001
 20
57.9411
 30
0
 11
0.25
 21
-0.433013
 31
0
 40
0.57735
 41
-4.55531
 42
-3.29867
  0
LINE
  5
415
330
112
100
AcDbEntity
  8
ProjItem005
100
AcDbLine
 10
103.019
 20
60.5625
 30
0
 11
104.136
 21
59.9172
 31
0
  0
LINE
  5
416
330
112
100
AcDbEntity
  8
ProjItem005
100
AcDbLine
 10
101.793
 20
58.3913
 30
0
 11
100.889
 21
58.1548
 31
0
  0
ELLIPSE
  5
417
330
112
100
AcDbEntity
  8
ProjItem005
100
AcDbEllipse
 10
103.019
 20
60.9708
 30
0
 11
0.25
 21
-0.433013
 31
0
 40
0.57735
 41
-2.04204
 42
-0.785398
  0
ELLIPSE
  5
418
330
112
100
AcDbEntity
  8
ProjItem005
100
AcDbEllipse
 10
100.681
 20
58.6051
 30
0
 11
-0.25
 21
0.433013
 31
0
 40
0.57735
 41
0.471239
 42
2.98451
  0
LINE
  5
419
330
112
100
AcDbEntity
  8
ProjItem005
100
AcDbLine
 10
102.337
 20
62.4656
 30
0
 11
102.682
 21
61.0387
 31
0
  0
LINE
  5
41A
330
112
100
AcDbEntity
  8
ProjItem005
100
AcDbLine
 10
100.345
 20
58.9253
 30
0
 11
100.69
 21
59.9534
 31
0
  0
ELLIPSE
  5
41B
330
112
100
AcDbEntity
  8
ProjItem005
100
AcDbEllipse
 10
102.001
 20
62.5336
 30
0
 11
-0.25
 21
0.433013
 31
0
 40
0.57735
 41
4.24115
 42
0
  0
ELLIPSE
  5
41C
330
112
100
AcDbEntity
  8
ProjItem005
100
AcDbEllipse
 10
102.001
 20
62.5336
 30
0
 11
-0.25
 21
0.433013
 31
0
 40
0.57735
 41
0
 42
0.471239
  0
ELLIPSE
  5
41D
330
112
100
AcDbEntity
  8
ProjItem005
100
AcDbEllipse
 10
100.354
 20
60.2737
 30
0
 11
0.25
 21
-0.433013
 31
0
 40
0.57735
 41
-5.81195
 42
-4.55531
  0
LINE
  5
41E
330
112
100
AcDbEntity
  8
ProjItem005
100
AcDbLine
 10
101.319
 20
61.8258
 30
0
 11
101.664
 21
62.8539
 31
0
  0
LINE
  5
41F
330
112
100
AcDbEntity
  8
ProjItem005
100
AcDbLine
 10
100.562
 20
60.484
 30
0
 11
99.6573
 21
61.7646
 31
0
  0
ELLIPSE
  5
420
330
112
100
AcDbEntity
  8
ProjItem005
100
AcDbEllipse
 10
100.983
 20
62.1461
 30
0
 11
0.25
 21
-0.433013
 31
0
 40
0.57735
 41
-0
 42
-5.81195
  0
ELLIPSE
  5
421
330
112
100
AcDbEntity
  8
ProjItem005
100
AcDbEllipse
 10
100.983
 20
62.1461
 30
0
 11
0.25
 21
-0.433013
 31
0
 40
0.57735
 41
-0.785398
 42
-0
  0
ELLIPSE
  5
422
330
112
100
AcDbEntity
  8
ProjItem005
100
AcDbEllipse
 10
99.8651
 20
61.9749
 30
0
 11
-0.25
 21
0.433013
 31
0
 40
0.57735
 41
5.49779
 42
0
  0
ELLIPSE
  5
423
330
112
100
AcDbEntity
  8
ProjItem005
100
AcDbEllipse
 10
99.8651
 20
61.9749
 30
0
 11
-0.25
 21
0.433013
 31
0
 40
0.57735
 41
1.11022e-16
 42
1.72788
  0
LINE
  5
424
330
112
100
AcDbEntity
  8
ProjItem005
100
AcDbLine
 10
99.8651
 20
62.3832
 30
0
 11
100.983
 21
61.7379
 31
0
  0
ELLIPSE
  5
425
330
112
100
AcDbEntity
  8
ProjItem005
100
AcDbEllipse
 10
102.001
 20
70.9862
 30
0
 11
-0.5
 21
0.866025
 31
0
 40
0.57735
 41
0.785398
 42
3.14159
  0
ELLIPSE
  5
426
330
112
100
AcDbEntity
  8
ProjItem005
100
AcDbEllipse
 10
102.001
 20
70.9862
 30
0
 11
-0.5
 21
0.866025
 31
0
 40
0.57735
 41
3.14159
 42
0
  0
ELLIPSE
  5
427
330
112
100
AcDbEntity
  8
ProjItem005
100
AcDbEllipse
 10
102.001
 20
70.9862
 30
0
 11
-0.5
 21
0.866025
 31
0
 40
0.57735
 41
0
 42
0.785398
  0
LINE
  5
428
330
112
100
AcDbEntity
  8
ProjItem005
100
AcDbLine
 10
112.159
 20
48.0678
 30
0
 11
108.623
 21
46.0265
 31
0
  0
LINE
  5
429
330
112
100
AcDbEntity
  8
ProjItem005
100
AcDbLine
 10
115.634
 20
58.4107
 30
0
 11
112.098
 21
56.3695
 31
0
  0
LINE
  5
42A
330
112
100
AcDbEntity
  8
ProjItem005
100
AcDbLine
 10
95.4388
 20
72.3797
 30
0
 11
91.9032
 21
70.3384
 31
0
  0
LINE
  5
42B
330
112
100
AcDbEntity
  8
ProjItem005
100
AcDbLine
 10
104.536
 20
74.7595
 30
0
 11
101.001
 21
72.7182
 31
0
  0
LINE
  5
42C
330
112
100
AcDbEntity
  8
ProjItem005
100
AcDbLine
 10
104.476
 20
59.4273
 30
0
 11
103.398
 21
58.8049
 31
0
  0
LINE
  5
42D
330
112
100
AcDbEntity
  8
ProjItem005
100
AcDbLine
 10
102.361
 20
62.3647
 30
0
 11
101.233
 21
61.7131
 31
0
  0
SPLINE
  5
42E
330
112
100
AcDbEntity
  8
ProjItem006
100
AcDbSpline
210
0
220
0
230
1
 70
8
 71
3
 72
41
 73
37
 74
0
 40
0
 40
0
 40
0
 40
0
 40
0.336599
 40
0.336599
 40
0.336599
 40
0.448799
 40
0.448799
 40
0.448799
 40
0.560999
 40
0.560999
 40
0.560999
 40
0.673198
 40
0.673198
 40
0.673198
 40
0.785398
 40
0.785398
 40
0.785398
 40
0.897598
 40
0.897598
 40
0.897598
 40
1.0098
 40
1.0098
 40
1.0098
 40
1.122
 40
1.122
 40
1.122
 40
1.2342
 40
1.2342
 40
1.2342
 40
1.3464
 40
1.3464
 40
1.3464
 40
1.4586
 40
1.4586
 40
1.4586
 40
1.5708
 40
1.5708
 40
1.5708
 40
1.5708
 10
161.366
 20
62.7685
 30
0
 10
161.59
 20
62.7685
 30
0
 10
161.813
 20
62.7685
 30
0
 10
162.026
 20
62.7685
 30
0
 10
162.095
 20
62.7685
 30
0
 10
162.164
 20
62.7685
 30
0
 10
162.234
 20
62.7685
 30
0
 10
162.299
 20
62.7685
 30
0
 10
162.364
 20
62.7685
 30
0
 10
162.43
 20
62.7685
 30
0
 10
162.491
 20
62.7685
 30
0
 10
162.552
 20
62.7685
 30
0
 10
162.613
 20
62.7685
 30
0
 10
162.668
 20
62.7685
 30
0
 10
162.724
 20
62.7685
 30
0
 10
162.78
 20
62.7685
 30
0
 10
162.83
 20
62.7685
 30
0
 10
162.88
 20
62.7685
 30
0
 10
162.929
 20
62.7685
 30
0
 10
162.973
 20
62.7685
 30
0
 10
163.016
 20
62.7685
 30
0
 10
163.059
 20
62.7685
 30
0
 10
163.095
 20
62.7685
 30
0
 10
163.132
 20
62.7685
 30
0
 10
163.168
 20
62.7685
 30
0
 10
163.196
 20
62.7685
 30
0
 10
163.225
 20
62.7685
 30
0
 10
163.254
 20
62.7685
 30
0
 10
163.274
 20
62.7685
 30
0
 10
163.295
 20
62.7685
 30
0
 10
163.316
 20
62.7685
 30
0
 10
163.328
 20
62.7685
 30
0
 10
163.341
 20
62.7685
 30
0
 10
163.353
 20
62.7685
 30
0
 10
163.357
 20
62.7685
 30
0
 10
163.362
 20
62.7685
 30
0
 10
163.366
 20
62.7685
 30
0
  0
LINE
  5
42F
330
112
100
AcDbEntity
  8
ProjItem006
100
AcDbLine
 10
154.443
 20
62.7685
 30
0
 11
161.366
 21
62.7685
 31
0
  0
SPLINE
  5
430
330
112
100
AcDbEntity
  8
ProjItem006
100
AcDbSpline
210
0
220
0
230
1
 70
8
 71
3
 72
35
 73
31
 74
0
 40
1.88496
 40
1.88496
 40
1.88496
 40
1.88496
 40
1.97472
 40
1.97472
 40
1.97472
 40
2.06448
 40
2.06448
 40
2.06448
 40
2.15423
 40
2.15423
 40
2.15423
 40
2.24399
 40
2.24399
 40
2.24399
 40
2.33375
 40
2.33375
 40
2.33375
 40
2.42351
 40
2.42351
 40
2.42351
 40
2.51327
 40
2.51327
 40
2.51327
 40
2.60303
 40
2.60303
 40
2.60303
 40
2.78255
 40
2.78255
 40
2.78255
 40
3.14159
 40
3.14159
 40
3.14159
 40
3.14159
 10
152.541
 20
62.7685
 30
0
 10
152.562
 20
62.7685
 30
0
 10
152.583
 20
62.7685
 30
0
 10
152.604
 20
62.7685
 30
0
 10
152.63
 20
62.7685
 30
0
 10
152.656
 20
62.7685
 30
0
 10
152.682
 20
62.7685
 30
0
 10
152.713
 20
62.7685
 30
0
 10
152.744
 20
62.7685
 30
0
 10
152.774
 20
62.7685
 30
0
 10
152.809
 20
62.7685
 30
0
 10
152.845
 20
62.7685
 30
0
 10
152.88
 20
62.7685
 30
0
 10
152.919
 20
62.7685
 30
0
 10
152.958
 20
62.7685
 30
0
 10
152.998
 20
62.7685
 30
0
 10
153.041
 20
62.7685
 30
0
 10
153.084
 20
62.7685
 30
0
 10
153.127
 20
62.7685
 30
0
 10
153.174
 20
62.7685
 30
0
 10
153.221
 20
62.7685
 30
0
 10
153.268
 20
62.7685
 30
0
 10
153.318
 20
62.7685
 30
0
 10
153.368
 20
62.7685
 30
0
 10
153.418
 20
62.7685
 30
0
 10
153.522
 20
62.7685
 30
0
 10
153.629
 20
62.7685
 30
0
 10
153.741
 20
62.7685
 30
0
 10
153.966
 20
62.7685
 30
0
 10
154.204
 20
62.7685
 30
0
 10
154.443
 20
62.7685
 30
0
  0
SPLINE
  5
431
330
112
100
AcDbEntity
  8
ProjItem006
100
AcDbSpline
210
0
220
0
230
1
 70
8
 71
2
 72
30
 73
27
 74
0
 40
4.71239
 40
4.71239
 40
4.71239
 40
4.82459
 40
4.82459
 40
4.93679
 40
4.93679
 40
5.04899
 40
5.04899
 40
5.16119
 40
5.16119
 40
5.27339
 40
5.27339
 40
5.38559
 40
5.38559
 40
5.49779
 40
5.49779
 40
5.60999
 40
5.60999
 40
5.72219
 40
5.72219
 40
5.83439
 40
5.83439
 40
5.94659
 40
5.94659
 40
6.05879
 40
6.05879
 40
6.28319
 40
6.28319
 40
6.28319
 10
133.634
 20
62.7685
 30
0
 10
133.641
 20
62.7685
 30
0
 10
133.647
 20
62.7685
 30
0
 10
133.666
 20
62.7685
 30
0
 10
133.684
 20
62.7685
 30
0
 10
133.715
 20
62.7685
 30
0
 10
133.746
 20
62.7685
 30
0
 10
133.789
 20
62.7685
 30
0
 10
133.832
 20
62.7685
 30
0
 10
133.887
 20
62.7685
 30
0
 10
133.941
 20
62.7685
 30
0
 10
134.006
 20
62.7685
 30
0
 10
134.071
 20
62.7685
 30
0
 10
134.145
 20
62.7685
 30
0
 10
134.22
 20
62.7685
 30
0
 10
134.304
 20
62.7685
 30
0
 10
134.387
 20
62.7685
 30
0
 10
134.479
 20
62.7685
 30
0
 10
134.57
 20
62.7685
 30
0
 10
134.668
 20
62.7685
 30
0
 10
134.766
 20
62.7685
 30
0
 10
134.87
 20
62.7685
 30
0
 10
134.974
 20
62.7685
 30
0
 10
135.081
 20
62.7685
 30
0
 10
135.189
 20
62.7685
 30
0
 10
135.41
 20
62.7685
 30
0
 10
135.634
 20
62.7685
 30
0
  0
LINE
  5
432
330
112
100
AcDbEntity
  8
ProjItem006
100
AcDbLine
 10
150.402
 20
62.7685
 30
0
 11
152.541
 21
62.7685
 31
0
  0
LINE
  5
433
330
112
100
AcDbEntity
  8
ProjItem006
100
AcDbLine
 10
135.634
 20
62.7685
 30
0
 11
142.557
 21
62.7685
 31
0
  0
SPLINE
  5
434
330
112
100
AcDbEntity
  8
ProjItem006
100
AcDbSpline
210
0
220
0
230
1
 70
8
 71
1
 72
17
 73
15
 74
0
 40
5.02655
 40
5.02655
 40
5.20607
 40
5.38559
 40
5.56511
 40
5.74463
 40
5.92415
 40
6.10367
 40
6.28319
 40
6.4627
 40
6.64222
 40
6.82174
 40
7.00126
 40
7.18078
 40
7.3603
 40
7.53982
 40
7.53982
 10
146.598
 20
62.7685
 30
0
 10
146.739
 20
62.7685
 30
0
 10
146.936
 20
62.7685
 30
0
 10
147.184
 20
62.7685
 30
0
 10
147.474
 20
62.7685
 30
0
 10
147.797
 20
62.7685
 30
0
 10
148.143
 20
62.7685
 30
0
 10
148.5
 20
62.7685
 30
0
 10
148.857
 20
62.7685
 30
0
 10
149.203
 20
62.7685
 30
0
 10
149.526
 20
62.7685
 30
0
 10
149.816
 20
62.7685
 30
0
 10
150.064
 20
62.7685
 30
0
 10
150.261
 20
62.7685
 30
0
 10
150.402
 20
62.7685
 30
0
  0
SPLINE
  5
435
330
112
100
AcDbEntity
  8
ProjItem006
100
AcDbSpline
210
0
220
0
230
1
 70
8
 71
2
 72
26
 73
23
 74
0
 40
3.14159
 40
3.14159
 40
3.14159
 40
3.41087
 40
3.41087
 40
3.59039
 40
3.59039
 40
3.68015
 40
3.68015
 40
3.76991
 40
3.76991
 40
3.85967
 40
3.85967
 40
3.94943
 40
3.94943
 40
4.03919
 40
4.03919
 40
4.12895
 40
4.12895
 40
4.21871
 40
4.21871
 40
4.30847
 40
4.30847
 40
4.39823
 40
4.39823
 40
4.39823
 10
142.557
 20
62.7685
 30
0
 10
142.827
 20
62.7685
 30
0
 10
143.089
 20
62.7685
 30
0
 10
143.261
 20
62.7685
 30
0
 10
143.424
 20
62.7685
 30
0
 10
143.503
 20
62.7685
 30
0
 10
143.582
 20
62.7685
 30
0
 10
143.657
 20
62.7685
 30
0
 10
143.732
 20
62.7685
 30
0
 10
143.802
 20
62.7685
 30
0
 10
143.873
 20
62.7685
 30
0
 10
143.937
 20
62.7685
 30
0
 10
144.002
 20
62.7685
 30
0
 10
144.061
 20
62.7685
 30
0
 10
144.12
 20
62.7685
 30
0
 10
144.173
 20
62.7685
 30
0
 10
144.226
 20
62.7685
 30
0
 10
144.272
 20
62.7685
 30
0
 10
144.318
 20
62.7685
 30
0
 10
144.357
 20
62.7685
 30
0
 10
144.396
 20
62.7685
 30
0
 10
144.427
 20
62.7685
 30
0
 10
144.459
 20
62.7685
 30
0
  0
LINE
  5
436
330
112
100
AcDbEntity
  8
ProjItem006
100
AcDbLine
 10
144.459
 20
62.7685
 30
0
 11
146.598
 21
62.7685
 31
0
  0
SPLINE
  5
437
330
112
100
AcDbEntity
  8
ProjItem006
100
AcDbSpline
210
0
220
0
230
1
 70
8
 71
3
 72
41
 73
37
 74
0
 40
0
 40
0
 40
0
 40
0
 40
0.336599
 40
0.336599
 40
0.336599
 40
0.448799
 40
0.448799
 40
0.448799
 40
0.560999
 40
0.560999
 40
0.560999
 40
0.673198
 40
0.673198
 40
0.673198
 40
0.785398
 40
0.785398
 40
0.785398
 40
0.897598
 40
0.897598
 40
0.897598
 40
1.0098
 40
1.0098
 40
1.0098
 40
1.122
 40
1.122
 40
1.122
 40
1.2342
 40
1.2342
 40
1.2342
 40
1.3464
 40
1.3464
 40
1.3464
 40
1.4586
 40
1.4586
 40
1.4586
 40
1.5708
 40
1.5708
 40
1.5708
 40
1.5708
 10
161.366
 20
57.7685
 30
0
 10
161.59
 20
57.7685
 30
0
 10
161.813
 20
57.7685
 30
0
 10
162.026
 20
57.7685
 30
0
 10
162.095
 20
57.7685
 30
0
 10
162.164
 20
57.7685
 30
0
 10
162.234
 20
57.7685
 30
0
 10
162.299
 20
57.7685
 30
0
 10
162.364
 20
57.7685
 30
0
 10
162.43
 20
57.7685
 30
0
 10
162.491
 20
57.7685
 30
0
 10
162.552
 20
57.7685
 30
0
 10
162.613
 20
57.7685
 30
0
 10
162.668
 20
57.7685
 30
0
 10
162.724
 20
57.7685
 30
0
 10
162.78
 20
57.7685
 30
0
 10
162.83
 20
57.7685
 30
0
 10
162.88
 20
57.7685
 30
0
 10
162.929
 20
57.7685
 30
0
 10
162.973
 20
57.7685
 30
0
 10
163.016
 20
57.7685
 30
0
 10
163.059
 20
57.7685
 30
0
 10
163.095
 20
57.7685
 30
0
 10
163.132
 20
57.7685
 30
0
 10
163.168
 20
57.7685
 30
0
 10
163.196
 20
57.7685
 30
0
 10
163.225
 20
57.7685
 30
0
 10
163.254
 20
57.7685
 30
0
 10
163.274
 20
57.7685
 30
0
 10
163.295
 20
57.7685
 30
0
 10
163.316
 20
57.7685
 30
0
 10
163.328
 20
57.7685
 30
0
 10
163.341
 20
57.7685
 30
0
 10
163.353
 20
57.7685
 30
0
 10
163.357
 20
57.7685
 30
0
 10
163.362
 20
57.7685
 30
0
 10
163.366
 20
57.7685
 30
0
  0
LINE
  5
438
330
112
100
AcDbEntity
  8
ProjItem006
100
AcDbLine
 10
154.443
 20
57.7685
 30
0
 11
161.366
 21
57.7685
 31
0
  0
SPLINE
  5
439
330
112
100
AcDbEntity
  8
ProjItem006
100
AcDbSpline
210
0
220
0
230
1
 70
8
 71
3
 72
35
 73
31
 74
0
 40
1.88496
 40
1.88496
 40
1.88496
 40
1.88496
 40
1.97472
 40
1.97472
 40
1.97472
 40
2.06448
 40
2.06448
 40
2.06448
 40
2.15423
 40
2.15423
 40
2.15423
 40
2.24399
 40
2.24399
 40
2.24399
 40
2.33375
 40
2.33375
 40
2.33375
 40
2.42351
 40
2.42351
 40
2.42351
 40
2.51327
 40
2.51327
 40
2.51327
 40
2.60303
 40
2.60303
 40
2.60303
 40
2.78255
 40
2.78255
 40
2.78255
 40
3.14159
 40
3.14159
 40
3.14159
 40
3.14159
 10
152.541
 20
57.7685
 30
0
 10
152.562
 20
57.7685
 30
0
 10
152.583
 20
57.7685
 30
0
 10
152.604
 20
57.7685
 30
0
 10
152.63
 20
57.7685
 30
0
 10
152.656
 20
57.7685
 30
0
 10
152.682
 20
57.7685
 30
0
 10
152.713
 20
57.7685
 30
0
 10
152.744
 20
57.7685
 30
0
 10
152.774
 20
57.7685
 30
0
 10
152.809
 20
57.7685
 30
0
 10
152.845
 20
57.7685
 30
0
 10
152.88
 20
57.7685
 30
0
 10
152.919
 20
57.7685
 30
0
 10
152.958
 20
57.7685
 30
0
 10
152.998
 20
57.7685
 30
0
 10
153.041
 20
57.7685
 30
0
 10
153.084
 20
57.7685
 30
0
 10
153.127
 20
57.7685
 30
0
 10
153.174
 20
57.7685
 30
0
 10
153.221
 20
57.7685
 30
0
 10
153.268
 20
57.7685
 30
0
 10
153.318
 20
57.7685
 30
0
 10
153.368
 20
57.7685
 30
0
 10
153.418
 20
57.7685
 30
0
 10
153.522
 20
57.7685
 30
0
 10
153.629
 20
57.7685
 30
0
 10
153.741
 20
57.7685
 30
0
 10
153.966
 20
57.7685
 30
0
 10
154.204
 20
57.7685
 30
0
 10
154.443
 20
57.7685
 30
0
  0
SPLINE
  5
43A
330
112
100
AcDbEntity
  8
ProjItem006
100
AcDbSpline
210
0
220
0
230
1
 70
8
 71
2
 72
30
 73
27
 74
0
 40
4.71239
 40
4.71239
 40
4.71239
 40
4.82459
 40
4.82459
 40
4.93679
 40
4.93679
 40
5.04899
 40
5.04899
 40
5.16119
 40
5.16119
 40
5.27339
 40
5.27339
 40
5.38559
 40
5.38559
 40
5.49779
 40
5.49779
 40
5.60999
 40
5.60999
 40
5.72219
 40
5.72219
 40
5.83439
 40
5.83439
 40
5.94659
 40
5.94659
 40
6.05879
 40
6.05879
 40
6.28319
 40
6.28319
 40
6.28319
 10
133.634
 20
57.7685
 30
0
 10
133.641
 20
57.7685
 30
0
 10
133.647
 20
57.7685
 30
0
 10
133.666
 20
57.7685
 30
0
 10
133.684
 20
57.7685
 30
0
 10
133.715
 20
57.7685
 30
0
 10
133.746
 20
57.7685
 30
0
 10
133.789
 20
57.7685
 30
0
 10
133.832
 20
57.7685
 30
0
 10
133.887
 20
57.7685
 30
0
 10
133.941
 20
57.7685
 30
0
 10
134.006
 20
57.7685
 30
0
 10
134.071
 20
57.7685
 30
0
 10
134.145
 20
57.7685
 30
0
 10
134.22
 20
57.7685
 30
0
 10
134.304
 20
57.7685
 30
0
 10
134.387
 20
57.7685
 30
0
 10
134.479
 20
57.7685
 30
0
 10
134.57
 20
57.7685
 30
0
 10
134.668
 20
57.7685
 30
0
 10
134.766
 20
57.7685
 30
0
 10
134.87
 20
57.7685
 30
0
 10
134.974
 20
57.7685
 30
0
 10
135.081
 20
57.7685
 30
0
 10
135.189
 20
57.7685
 30
0
 10
135.41
 20
57.7685
 30
0
 10
135.634
 20
57.7685
 30
0
  0
LINE
  5
43B
330
112
100
AcDbEntity
  8
ProjItem006
100
AcDbLine
 10
150.402
 20
57.7685
 30
0
 11
152.541
 21
57.7685
 31
0
  0
LINE
  5
43C
330
112
100
AcDbEntity
  8
ProjItem006
100
AcDbLine
 10
135.634
 20
57.7685
 30
0
 11
142.557
 21
57.7685
 31
0
  0
SPLINE
  5
43D
330
112
100
AcDbEntity
  8
ProjItem006
100
AcDbSpline
210
0
220
0
230
1
 70
8
 71
1
 72
17
 73
15
 74
0
 40
5.02655
 40
5.02655
 40
5.20607
 40
5.38559
 40
5.56511
 40
5.74463
 40
5.92415
 40
6.10367
 40
6.28319
 40
6.4627
 40
6.64222
 40
6.82174
 40
7.00126
 40
7.18078
 40
7.3603
 40
7.53982
 40
7.53982
 10
146.598
 20
57.7685
 30
0
 10
146.739
 20
57.7685
 30
0
 10
146.936
 20
57.7685
 30
0
 10
147.184
 20
57.7685
 30
0
 10
147.474
 20
57.7685
 30
0
 10
147.797
 20
57.7685
 30
0
 10
148.143
 20
57.7685
 30
0
 10
148.5
 20
57.7685
 30
0
 10
148.857
 20
57.7685
 30
0
 10
149.203
 20
57.7685
 30
0
 10
149.526
 20
57.7685
 30
0
 10
149.816
 20
57.7685
 30
0
 10
150.064
 20
57.7685
 30
0
 10
150.261
 20
57.7685
 30
0
 10
150.402
 20
57.7685
 30
0
  0
SPLINE
  5
43E
330
112
100
AcDbEntity
  8
ProjItem006
100
AcDbSpline
210
0
220
0
230
1
 70
8
 71
2
 72
26
 73
23
 74
0
 40
3.14159
 40
3.14159
 40
3.14159
 40
3.41087
 40
3.41087
 40
3.59039
 40
3.59039
 40
3.68015
 40
3.68015
 40
3.76991
 40
3.76991
 40
3.85967
 40
3.85967
 40
3.94943
 40
3.94943
 40
4.03919
 40
4.03919
 40
4.12895
 40
4.12895
 40
4.21871
 40
4.21871
 40
4.30847
 40
4.30847
 40
4.39823
 40
4.39823
 40
4.39823
 10
142.557
 20
57.7685
 30
0
 10
142.827
 20
57.7685
 30
0
 10
143.089
 20
57.7685
 30
0
 10
143.261
 20
57.7685
 30
0
 10
143.424
 20
57.7685
 30
0
 10
143.503
 20
57.7685
 30
0
 10
143.582
 20
57.7685
 30
0
 10
143.657
 20
57.7685
 30
0
 10
143.732
 20
57.7685
 30
0
 10
143.802
 20
57.7685
 30
0
 10
143.873
 20
57.7685
 30
0
 10
143.937
 20
57.7685
 30
0
 10
144.002
 20
57.7685
 30
0
 10
144.061
 20
57.7685
 30
0
 10
144.12
 20
57.7685
 30
0
 10
144.173
 20
57.7685
 30
0
 10
144.226
 20
57.7685
 30
0
 10
144.272
 20
57.7685
 30
0
 10
144.318
 20
57.7685
 30
0
 10
144.357
 20
57.7685
 30
0
 10
144.396
 20
57.7685
 30
0
 10
144.427
 20
57.7685
 30
0
 10
144.459
 20
57.7685
 30
0
  0
LINE
  5
43F
330
112
100
AcDbEntity
  8
ProjItem006
100
AcDbLine
 10
144.459
 20
57.7685
 30
0
 11
146.598
 21
57.7685
 31
0
  0
LINE
  5
440
330
112
100
AcDbEntity
  8
ProjItem006
100
AcDbLine
 10
163.366
 20
62.7685
 30
0
 11
163.366
 21
57.7685
 31
0
  0
LINE
  5
441
330
112
100
AcDbEntity
  8
ProjItem006
100
AcDbLine
 10
133.634
 20
62.7685
 30
0
 11
133.634
 21
57.7685
 31
0
  0
ELLIPSE
  5
442
330
112
100
AcDbEntity
  8
ProjItem007
100
AcDbEllipse
 10
185.841
 20
49.7998
 30
0
 11
1
 21
1.73205
 31
0
 40
0.57735
 41
-4.24115
 42
-3.14159
  0
LINE
  5
443
330
112
100
AcDbEntity
  8
ProjItem007
100
AcDbLine
 10
184.496
 20
49.5279
 30
0
 11
186.009
 21
55.7767
 31
0
  0
ELLIPSE
  5
444
330
112
100
AcDbEntity
  8
ProjItem007
100
AcDbEllipse
 10
200.561
 20
70.6476
 30
0
 11
1
 21
1.73205
 31
0
 40
0.57735
 41
-0
 42
-5.49779
  0
ELLIPSE
  5
445
330
112
100
AcDbEntity
  8
ProjItem007
100
AcDbEllipse
 10
184.664
 20
55.5048
 30
0
 11
-1
 21
-1.73205
 31
0
 40
0.57735
 41
2.04204
 42
2.1912
  0
LINE
  5
446
330
112
100
AcDbEntity
  8
ProjItem007
100
AcDbLine
 10
197.026
 20
70.2393
 30
0
 11
200.561
 21
72.2806
 31
0
  0
ELLIPSE
  5
447
330
112
100
AcDbEntity
  8
ProjItem007
100
AcDbEllipse
 10
182.366
 20
60.1428
 30
0
 11
1
 21
1.73205
 31
0
 40
0.57735
 41
-5.49779
 42
-3.14159
  0
LINE
  5
448
330
112
100
AcDbEntity
  8
ProjItem007
100
AcDbLine
 10
182.366
 20
61.7758
 30
0
 11
187.261
 21
64.6018
 31
0
  0
ELLIPSE
  5
449
330
112
100
AcDbEntity
  8
ProjItem007
100
AcDbEllipse
 10
191.464
 20
73.0274
 30
0
 11
1
 21
1.73205
 31
0
 40
0.57735
 41
-0
 42
-4.24115
  0
ELLIPSE
  5
44A
330
112
100
AcDbEntity
  8
ProjItem007
100
AcDbEllipse
 10
187.261
 20
66.2348
 30
0
 11
-1
 21
-1.73205
 31
0
 40
0.57735
 41
0.785398
 42
2.04204
  0
LINE
  5
44B
330
112
100
AcDbEntity
  8
ProjItem007
100
AcDbLine
 10
188.606
 20
66.5067
 30
0
 11
190.119
 21
72.7555
 31
0
  0
LINE
  5
44C
330
112
100
AcDbEntity
  8
ProjItem007
100
AcDbLine
 10
199.791
 20
52.4499
 30
0
 11
195.831
 21
53.4858
 31
0
  0
ELLIPSE
  5
44D
330
112
100
AcDbEntity
  8
ProjItem007
100
AcDbEllipse
 10
200.622
 20
54.2509
 30
0
 11
-1
 21
-1.73205
 31
0
 40
0.57735
 41
0.15708
 42
2.67035
  0
ELLIPSE
  5
44E
330
112
100
AcDbEntity
  8
ProjItem007
100
AcDbEllipse
 10
194.999
 20
51.6847
 30
0
 11
-1
 21
-1.73205
 31
0
 40
0.57735
 41
3.29867
 42
4.55531
  0
LINE
  5
44F
330
112
100
AcDbEntity
  8
ProjItem007
100
AcDbLine
 10
200.454
 20
60.0343
 30
0
 11
201.967
 21
55.5321
 31
0
  0
LINE
  5
450
330
112
100
AcDbEntity
  8
ProjItem007
100
AcDbLine
 10
194.168
 20
52.5259
 30
0
 11
190.208
 21
46.9174
 31
0
  0
ELLIPSE
  5
451
330
112
100
AcDbEntity
  8
ProjItem007
100
AcDbEllipse
 10
201.799
 20
61.3154
 30
0
 11
-1
 21
-1.73205
 31
0
 40
0.57735
 41
4.55531
 42
5.81195
  0
ELLIPSE
  5
452
330
112
100
AcDbEntity
  8
ProjItem007
100
AcDbEllipse
 10
189.377
 20
47.7586
 30
0
 11
1
 21
1.73205
 31
0
 40
0.57735
 41
-3.14159
 42
-1.72788
  0
ELLIPSE
  5
453
330
112
100
AcDbEntity
  8
ProjItem007
100
AcDbEllipse
 10
189.377
 20
47.7586
 30
0
 11
1
 21
1.73205
 31
0
 40
0.57735
 41
-4.24115
 42
-3.14159
  0
LINE
  5
454
330
112
100
AcDbEntity
  8
ProjItem007
100
AcDbLine
 10
204.928
 20
67.7652
 30
0
 11
200.968
 21
62.1566
 31
0
  0
LINE
  5
455
330
112
100
AcDbEntity
  8
ProjItem007
100
AcDbLine
 10
188.032
 20
47.4867
 30
0
 11
189.544
 21
53.7354
 31
0
  0
ELLIPSE
  5
456
330
112
100
AcDbEntity
  8
ProjItem007
100
AcDbEllipse
 10
204.097
 20
68.6064
 30
0
 11
1
 21
1.73205
 31
0
 40
0.57735
 41
-0
 42
-5.49779
  0
ELLIPSE
  5
457
330
112
100
AcDbEntity
  8
ProjItem007
100
AcDbEllipse
 10
204.097
 20
68.6064
 30
0
 11
1
 21
1.73205
 31
0
 40
0.57735
 41
-1.72788
 42
-0
  0
ELLIPSE
  5
458
330
112
100
AcDbEntity
  8
ProjItem007
100
AcDbEllipse
 10
188.199
 20
53.4635
 30
0
 11
-1
 21
-1.73205
 31
0
 40
0.57735
 41
2.04204
 42
3.14159
  0
ELLIPSE
  5
459
330
112
100
AcDbEntity
  8
ProjItem007
100
AcDbEllipse
 10
188.199
 20
53.4635
 30
0
 11
-1
 21
-1.73205
 31
0
 40
0.57735
 41
3.14159
 42
3.29867
  0
LINE
  5
45A
330
112
100
AcDbEntity
  8
ProjItem007
100
AcDbLine
 10
199.202
 20
67.4133
 30
0
 11
204.097
 21
70.2394
 31
0
  0
LINE
  5
45B
330
112
100
AcDbEntity
  8
ProjItem007
100
AcDbLine
 10
189.031
 20
55.2646
 30
0
 11
185.071
 21
56.3005
 31
0
  0
ELLIPSE
  5
45C
330
112
100
AcDbEntity
  8
ProjItem007
100
AcDbEllipse
 10
199.202
 20
69.0463
 30
0
 11
-1
 21
-1.73205
 31
0
 40
0.57735
 41
5.81195
 42
0
  0
ELLIPSE
  5
45D
330
112
100
AcDbEntity
  8
ProjItem007
100
AcDbEllipse
 10
199.202
 20
69.0463
 30
0
 11
-1
 21
-1.73205
 31
0
 40
0.57735
 41
4.44089e-16
 42
0.785398
  0
ELLIPSE
  5
45E
330
112
100
AcDbEntity
  8
ProjItem007
100
AcDbEllipse
 10
185.902
 20
58.1015
 30
0
 11
1
 21
1.73205
 31
0
 40
0.57735
 41
-3.14159
 42
-2.98451
  0
ELLIPSE
  5
45F
330
112
100
AcDbEntity
  8
ProjItem007
100
AcDbEllipse
 10
185.902
 20
58.1015
 30
0
 11
1
 21
1.73205
 31
0
 40
0.57735
 41
-5.49779
 42
-3.14159
  0
LINE
  5
460
330
112
100
AcDbEntity
  8
ProjItem007
100
AcDbLine
 10
196.344
 20
72.2673
 30
0
 11
197.857
 21
67.7651
 31
0
  0
LINE
  5
461
330
112
100
AcDbEntity
  8
ProjItem007
100
AcDbLine
 10
185.902
 20
59.7345
 30
0
 11
190.797
 21
62.5606
 31
0
  0
ELLIPSE
  5
462
330
112
100
AcDbEntity
  8
ProjItem007
100
AcDbEllipse
 10
194.999
 20
70.9862
 30
0
 11
1
 21
1.73205
 31
0
 40
0.57735
 41
-0
 42
-4.24115
  0
ELLIPSE
  5
463
330
112
100
AcDbEntity
  8
ProjItem007
100
AcDbEllipse
 10
194.999
 20
70.9862
 30
0
 11
1
 21
1.73205
 31
0
 40
0.57735
 41
-0.471239
 42
-0
  0
ELLIPSE
  5
464
330
112
100
AcDbEntity
  8
ProjItem007
100
AcDbEllipse
 10
190.797
 20
64.1936
 30
0
 11
-1
 21
-1.73205
 31
0
 40
0.57735
 41
0.785398
 42
2.04204
  0
LINE
  5
465
330
112
100
AcDbEntity
  8
ProjItem007
100
AcDbLine
 10
192.142
 20
64.4655
 30
0
 11
193.654
 21
70.7143
 31
0
  0
LINE
  5
466
330
112
100
AcDbEntity
  8
ProjItem007
100
AcDbLine
 10
196.31
 20
59.9534
 30
0
 11
196.655
 21
58.9253
 31
0
  0
ELLIPSE
  5
467
330
112
100
AcDbEntity
  8
ProjItem007
100
AcDbEllipse
 10
196.646
 20
60.2737
 30
0
 11
0.25
 21
0.433013
 31
0
 40
0.57735
 41
-4.86947
 42
-3.61283
  0
ELLIPSE
  5
468
330
112
100
AcDbEntity
  8
ProjItem007
100
AcDbEllipse
 10
196.319
 20
58.6051
 30
0
 11
0.25
 21
0.433013
 31
0
 40
0.57735
 41
-2.98451
 42
-0.471239
  0
LINE
  5
469
330
112
100
AcDbEntity
  8
ProjItem007
100
AcDbLine
 10
197.343
 20
61.7646
 30
0
 11
196.438
 21
60.484
 31
0
  0
LINE
  5
46A
330
112
100
AcDbEntity
  8
ProjItem007
100
AcDbLine
 10
196.111
 20
58.1548
 30
0
 11
195.207
 21
58.3913
 31
0
  0
ELLIPSE
  5
46B
330
112
100
AcDbEntity
  8
ProjItem007
100
AcDbEllipse
 10
197.135
 20
61.9749
 30
0
 11
-0.25
 21
-0.433013
 31
0
 40
0.57735
 41
1.41372
 42
3.14159
  0
ELLIPSE
  5
46C
330
112
100
AcDbEntity
  8
ProjItem007
100
AcDbEllipse
 10
197.135
 20
61.9749
 30
0
 11
-0.25
 21
-0.433013
 31
0
 40
0.57735
 41
3.14159
 42
3.92699
  0
ELLIPSE
  5
46D
330
112
100
AcDbEntity
  8
ProjItem007
100
AcDbEllipse
 10
194.999
 20
57.9411
 30
0
 11
0.25
 21
0.433013
 31
0
 40
0.57735
 41
-6.12611
 42
-4.86947
  0
LINE
  5
46E
330
112
100
AcDbEntity
  8
ProjItem007
100
AcDbLine
 10
196.017
 20
61.7379
 30
0
 11
197.135
 21
62.3832
 31
0
  0
LINE
  5
46F
330
112
100
AcDbEntity
  8
ProjItem007
100
AcDbLine
 10
194.791
 20
58.1514
 30
0
 11
193.887
 21
56.8707
 31
0
  0
ELLIPSE
  5
470
330
112
100
AcDbEntity
  8
ProjItem007
100
AcDbEllipse
 10
196.017
 20
62.1461
 30
0
 11
0.25
 21
0.433013
 31
0
 40
0.57735
 41
-3.14159
 42
-2.35619
  0
ELLIPSE
  5
471
330
112
100
AcDbEntity
  8
ProjItem007
100
AcDbEllipse
 10
196.017
 20
62.1461
 30
0
 11
0.25
 21
0.433013
 31
0
 40
0.57735
 41
-3.61283
 42
-3.14159
  0
ELLIPSE
  5
472
330
112
100
AcDbEntity
  8
ProjItem007
100
AcDbEllipse
 10
193.679
 20
57.081
 30
0
 11
-0.25
 21
-0.433013
 31
0
 40
0.57735
 41
5.18363
 42
0
  0
ELLIPSE
  5
473
330
112
100
AcDbEntity
  8
ProjItem007
100
AcDbEllipse
 10
193.679
 20
57.081
 30
0
 11
-0.25
 21
-0.433013
 31
0
 40
0.57735
 41
0
 42
1.41372
  0
LINE
  5
474
330
112
100
AcDbEntity
  8
ProjItem007
100
AcDbLine
 10
195.336
 20
62.8539
 30
0
 11
195.681
 21
61.8258
 31
0
  0
LINE
  5
475
330
112
100
AcDbEntity
  8
ProjItem007
100
AcDbLine
 10
193.343
 20
57.013
 30
0
 11
193.689
 21
58.4399
 31
0
  0
ELLIPSE
  5
476
330
112
100
AcDbEntity
  8
ProjItem007
100
AcDbEllipse
 10
194.999
 20
62.5336
 30
0
 11
-0.25
 21
-0.433013
 31
0
 40
0.57735
 41
2.67035
 42
3.14159
  0
ELLIPSE
  5
477
330
112
100
AcDbEntity
  8
ProjItem007
100
AcDbEllipse
 10
194.999
 20
62.5336
 30
0
 11
-0.25
 21
-0.433013
 31
0
 40
0.57735
 41
3.14159
 42
5.18363
  0
ELLIPSE
  5
478
330
112
100
AcDbEntity
  8
ProjItem007
100
AcDbEllipse
 10
193.352
 20
58.3719
 30
0
 11
0.25
 21
0.433013
 31
0
 40
0.57735
 41
-0
 42
-6.12611
  0
ELLIPSE
  5
479
330
112
100
AcDbEntity
  8
ProjItem007
100
AcDbEllipse
 10
193.352
 20
58.3719
 30
0
 11
0.25
 21
0.433013
 31
0
 40
0.57735
 41
-1.09956
 42
-0
  0
LINE
  5
47A
330
112
100
AcDbEntity
  8
ProjItem007
100
AcDbLine
 10
194.318
 20
61.0387
 30
0
 11
194.663
 21
62.4656
 31
0
  0
LINE
  5
47B
330
112
100
AcDbEntity
  8
ProjItem007
100
AcDbLine
 10
193.56
 20
58.8222
 30
0
 11
192.656
 21
59.0587
 31
0
  0
ELLIPSE
  5
47C
330
112
100
AcDbEntity
  8
ProjItem007
100
AcDbEllipse
 10
193.981
 20
60.9708
 30
0
 11
0.25
 21
0.433013
 31
0
 40
0.57735
 41
-2.35619
 42
-1.09956
  0
ELLIPSE
  5
47D
330
112
100
AcDbEntity
  8
ProjItem007
100
AcDbEllipse
 10
192.864
 20
59.509
 30
0
 11
-0.25
 21
-0.433013
 31
0
 40
0.57735
 41
3.92699
 42
0
  0
ELLIPSE
  5
47E
330
112
100
AcDbEntity
  8
ProjItem007
100
AcDbEllipse
 10
192.864
 20
59.509
 30
0
 11
-0.25
 21
-0.433013
 31
0
 40
0.57735
 41
0
 42
0.15708
  0
LINE
  5
47F
330
112
100
AcDbEntity
  8
ProjItem007
100
AcDbLine
 10
192.864
 20
59.9172
 30
0
 11
193.981
 21
60.5625
 31
0
  0
ELLIPSE
  5
480
330
112
100
AcDbEntity
  8
ProjItem007
100
AcDbEllipse
 10
194.999
 20
70.9862
 30
0
 11
-0.5
 21
-0.866025
 31
0
 40
0.57735
 41
5.49779
 42
0
  0
ELLIPSE
  5
481
330
112
100
AcDbEntity
  8
ProjItem007
100
AcDbEllipse
 10
194.999
 20
70.9862
 30
0
 11
-0.5
 21
-0.866025
 31
0
 40
0.57735
 41
0
 42
3.14159
  0
ELLIPSE
  5
482
330
112
100
AcDbEntity
  8
ProjItem007
100
AcDbEllipse
 10
194.999
 20
70.9862
 30
0
 11
-0.5
 21
-0.866025
 31
0
 40
0.57735
 41
3.14159
 42
5.49779
  0
LINE
  5
483
330
112
100
AcDbEntity
  8
ProjItem007
100
AcDbLine
 10
184.841
 20
48.0678
 30
0
 11
188.377
 21
46.0265
 31
0
  0
LINE
  5
484
330
112
100
AcDbEntity
  8
ProjItem007
100
AcDbLine
 10
201.561
 20
72.3797
 30
0
 11
205.097
 21
70.3384
 31
0
  0
LINE
  5
485
330
112
100
AcDbEntity
  8
ProjItem007
100
AcDbLine
 10
181.366
 20
58.4107
 30
0
 11
184.902
 21
56.3695
 31
0
  0
LINE
  5
486
330
112
100
AcDbEntity
  8
ProjItem007
100
AcDbLine
 10
192.464
 20
74.7595
 30
0
 11
195.999
 21
72.7182
 31
0
  0
LINE
  5
487
330
112
100
AcDbEntity
  8
ProjItem007
100
AcDbLine
 10
194.639
 20
62.3647
 30
0
 11
195.767
 21
61.7131
 31
0
  0
LINE
  5
488
330
112
100
AcDbEntity
  8
ProjItem007
100
AcDbLine
 10
192.524
 20
59.4273
 30
0
 11
193.602
 21
58.8049
 31
0
  0
SPLINE
  5
489
330
112
100
AcDbEntity
  8
ProjItem008
100
AcDbSpline
210
0
220
0
230
1
 70
8
 71
2
 72
28
 73
25
 74
0
 40
3.14159
 40
3.14159
 40
3.14159
 40
3.27623
 40
3.27623
 40
3.41087
 40
3.41087
 40
3.54551
 40
3.54551
 40
3.68015
 40
3.68015
 40
3.81479
 40
3.81479
 40
3.94943
 40
3.94943
 40
4.08407
 40
4.08407
 40
4.21871
 40
4.21871
 40
4.35335
 40
4.35335
 40
4.48799
 40
4.48799
 40
4.75727
 40
4.75727
 40
5.02655
 40
5.02655
 40
5.02655
 10
190.732
 20
90.7639
 30
0
 10
190.732
 20
90.773
 30
0
 10
190.732
 20
90.782
 30
0
 10
190.732
 20
90.809
 30
0
 10
190.732
 20
90.836
 30
0
 10
190.732
 20
90.8804
 30
0
 10
190.732
 20
90.9249
 30
0
 10
190.732
 20
90.986
 30
0
 10
190.732
 20
91.047
 30
0
 10
190.732
 20
91.1237
 30
0
 10
190.732
 20
91.2003
 30
0
 10
190.732
 20
91.291
 30
0
 10
190.732
 20
91.3818
 30
0
 10
190.732
 20
91.4851
 30
0
 10
190.732
 20
91.5884
 30
0
 10
190.732
 20
91.7023
 30
0
 10
190.732
 20
91.8162
 30
0
 10
190.732
 20
91.9387
 30
0
 10
190.732
 20
92.0612
 30
0
 10
190.732
 20
92.19
 30
0
 10
190.732
 20
92.3189
 30
0
 10
190.732
 20
92.5837
 30
0
 10
190.732
 20
92.8537
 30
0
 10
190.732
 20
93.1229
 30
0
 10
190.732
 20
93.382
 30
0
  0
LINE
  5
48A
330
112
100
AcDbEntity
  8
ProjItem008
100
AcDbLine
 10
190.732
 20
93.382
 30
0
 11
190.732
 21
99.9656
 31
0
  0
SPLINE
  5
48B
330
112
100
AcDbEntity
  8
ProjItem008
100
AcDbSpline
210
0
220
0
230
1
 70
8
 71
3
 72
26
 73
22
 74
0
 40
4.39823
 40
4.39823
 40
4.39823
 40
4.39823
 40
5.02655
 40
5.02655
 40
5.02655
 40
5.11631
 40
5.11631
 40
5.11631
 40
5.29583
 40
5.29583
 40
5.29583
 40
5.38559
 40
5.38559
 40
5.38559
 40
5.47535
 40
5.47535
 40
5.47535
 40
5.56511
 40
5.56511
 40
5.56511
 40
5.65487
 40
5.65487
 40
5.65487
 40
5.65487
 10
190.732
 20
99.9656
 30
0
 10
190.732
 20
100.365
 30
0
 10
190.732
 20
100.802
 30
0
 10
190.732
 20
101.202
 30
0
 10
190.732
 20
101.258
 30
0
 10
190.732
 20
101.314
 30
0
 10
190.732
 20
101.37
 30
0
 10
190.732
 20
101.479
 30
0
 10
190.732
 20
101.584
 30
0
 10
190.732
 20
101.685
 30
0
 10
190.732
 20
101.734
 30
0
 10
190.732
 20
101.782
 30
0
 10
190.732
 20
101.831
 30
0
 10
190.732
 20
101.876
 30
0
 10
190.732
 20
101.921
 30
0
 10
190.732
 20
101.966
 30
0
 10
190.732
 20
102.007
 30
0
 10
190.732
 20
102.048
 30
0
 10
190.732
 20
102.09
 30
0
 10
190.732
 20
102.127
 30
0
 10
190.732
 20
102.164
 30
0
 10
190.732
 20
102.202
 30
0
  0
LINE
  5
48C
330
112
100
AcDbEntity
  8
ProjItem008
100
AcDbLine
 10
190.732
 20
102.202
 30
0
 11
190.732
 21
106.271
 31
0
  0
SPLINE
  5
48D
330
112
100
AcDbEntity
  8
ProjItem008
100
AcDbSpline
210
0
220
0
230
1
 70
8
 71
1
 72
17
 73
15
 74
0
 40
3.76991
 40
3.76991
 40
3.94943
 40
4.12895
 40
4.30847
 40
4.48799
 40
4.66751
 40
4.84703
 40
5.02655
 40
5.20607
 40
5.38559
 40
5.56511
 40
5.74463
 40
5.92415
 40
6.10367
 40
6.28319
 40
6.28319
 10
190.732
 20
106.271
 30
0
 10
190.732
 20
106.506
 30
0
 10
190.732
 20
106.787
 30
0
 10
190.732
 20
107.102
 30
0
 10
190.732
 20
107.444
 30
0
 10
190.732
 20
107.799
 30
0
 10
190.732
 20
108.157
 30
0
 10
190.732
 20
108.507
 30
0
 10
190.732
 20
108.836
 30
0
 10
190.732
 20
109.136
 30
0
 10
190.732
 20
109.395
 30
0
 10
190.732
 20
109.605
 30
0
 10
190.732
 20
109.761
 30
0
 10
190.732
 20
109.856
 30
0
 10
190.732
 20
109.889
 30
0
  0
SPLINE
  5
48E
330
112
100
AcDbEntity
  8
ProjItem008
100
AcDbSpline
210
0
220
0
230
1
 70
8
 71
2
 72
30
 73
27
 74
0
 40
5.02655
 40
5.02655
 40
5.02655
 40
5.11631
 40
5.11631
 40
5.29583
 40
5.29583
 40
5.38559
 40
5.38559
 40
5.47535
 40
5.47535
 40
5.56511
 40
5.56511
 40
5.65487
 40
5.65487
 40
5.74463
 40
5.74463
 40
5.83439
 40
5.83439
 40
5.92415
 40
5.92415
 40
6.01391
 40
6.01391
 40
6.10367
 40
6.10367
 40
6.19343
 40
6.19343
 40
6.28319
 40
6.28319
 40
6.28319
 10
190.732
 20
117.854
 30
0
 10
190.732
 20
117.938
 30
0
 10
190.732
 20
118.022
 30
0
 10
190.732
 20
118.186
 30
0
 10
190.732
 20
118.338
 30
0
 10
190.732
 20
118.41
 30
0
 10
190.732
 20
118.483
 30
0
 10
190.732
 20
118.551
 30
0
 10
190.732
 20
118.618
 30
0
 10
190.732
 20
118.68
 30
0
 10
190.732
 20
118.742
 30
0
 10
190.732
 20
118.798
 30
0
 10
190.732
 20
118.854
 30
0
 10
190.732
 20
118.904
 30
0
 10
190.732
 20
118.953
 30
0
 10
190.732
 20
118.995
 30
0
 10
190.732
 20
119.038
 30
0
 10
190.732
 20
119.073
 30
0
 10
190.732
 20
119.109
 30
0
 10
190.732
 20
119.136
 30
0
 10
190.732
 20
119.164
 30
0
 10
190.732
 20
119.184
 30
0
 10
190.732
 20
119.204
 30
0
 10
190.732
 20
119.216
 30
0
 10
190.732
 20
119.228
 30
0
 10
190.732
 20
119.232
 30
0
 10
190.732
 20
119.236
 30
0
  0
SPLINE
  5
48F
330
112
100
AcDbEntity
  8
ProjItem008
100
AcDbSpline
210
0
220
0
230
1
 70
8
 71
2
 72
30
 73
27
 74
0
 40
3.14159
 40
3.14159
 40
3.14159
 40
3.23135
 40
3.23135
 40
3.32111
 40
3.32111
 40
3.41087
 40
3.41087
 40
3.50063
 40
3.50063
 40
3.59039
 40
3.59039
 40
3.68015
 40
3.68015
 40
3.76991
 40
3.76991
 40
3.85967
 40
3.85967
 40
3.94943
 40
3.94943
 40
4.03919
 40
4.03919
 40
4.12895
 40
4.12895
 40
4.21871
 40
4.21871
 40
4.39823
 40
4.39823
 40
4.39823
 10
190.732
 20
109.889
 30
0
 10
190.732
 20
109.893
 30
0
 10
190.732
 20
109.897
 30
0
 10
190.732
 20
109.909
 30
0
 10
190.732
 20
109.921
 30
0
 10
190.732
 20
109.941
 30
0
 10
190.732
 20
109.961
 30
0
 10
190.732
 20
109.988
 30
0
 10
190.732
 20
110.016
 30
0
 10
190.732
 20
110.051
 30
0
 10
190.732
 20
110.087
 30
0
 10
190.732
 20
110.129
 30
0
 10
190.732
 20
110.172
 30
0
 10
190.732
 20
110.221
 30
0
 10
190.732
 20
110.271
 30
0
 10
190.732
 20
110.326
 30
0
 10
190.732
 20
110.382
 30
0
 10
190.732
 20
110.444
 30
0
 10
190.732
 20
110.506
 30
0
 10
190.732
 20
110.574
 30
0
 10
190.732
 20
110.642
 30
0
 10
190.732
 20
110.714
 30
0
 10
190.732
 20
110.787
 30
0
 10
190.732
 20
110.864
 30
0
 10
190.732
 20
110.941
 30
0
 10
190.732
 20
111.101
 30
0
 10
190.732
 20
111.271
 30
0
  0
LINE
  5
490
330
112
100
AcDbEntity
  8
ProjItem008
100
AcDbLine
 10
190.732
 20
111.271
 30
0
 11
190.732
 21
117.854
 31
0
  0
SPLINE
  5
491
330
112
100
AcDbEntity
  8
ProjItem008
100
AcDbSpline
210
0
220
0
230
1
 70
8
 71
2
 72
28
 73
25
 74
0
 40
3.14159
 40
3.14159
 40
3.14159
 40
3.27623
 40
3.27623
 40
3.41087
 40
3.41087
 40
3.54551
 40
3.54551
 40
3.68015
 40
3.68015
 40
3.81479
 40
3.81479
 40
3.94943
 40
3.94943
 40
4.08407
 40
4.08407
 40
4.21871
 40
4.21871
 40
4.35335
 40
4.35335
 40
4.48799
 40
4.48799
 40
4.75727
 40
4.75727
 40
5.02655
 40
5.02655
 40
5.02655
 10
195.732
 20
90.7639
 30
0
 10
195.732
 20
90.773
 30
0
 10
195.732
 20
90.782
 30
0
 10
195.732
 20
90.809
 30
0
 10
195.732
 20
90.836
 30
0
 10
195.732
 20
90.8804
 30
0
 10
195.732
 20
90.9249
 30
0
 10
195.732
 20
90.986
 30
0
 10
195.732
 20
91.047
 30
0
 10
195.732
 20
91.1237
 30
0
 10
195.732
 20
91.2003
 30
0
 10
195.732
 20
91.291
 30
0
 10
195.732
 20
91.3818
 30
0
 10
195.732
 20
91.4851
 30
0
 10
195.732
 20
91.5884
 30
0
 10
195.732
 20
91.7023
 30
0
 10
195.732
 20
91.8162
 30
0
 10
195.732
 20
91.9387
 30
0
 10
195.732
 20
92.0612
 30
0
 10
195.732
 20
92.19
 30
0
 10
195.732
 20
92.3189
 30
0
 10
195.732
 20
92.5837
 30
0
 10
195.732
 20
92.8537
 30
0
 10
195.732
 20
93.1229
 30
0
 10
195.732
 20
93.382
 30
0
  0
LINE
  5
492
330
112
100
AcDbEntity
  8
ProjItem008
100
AcDbLine
 10
195.732
 20
93.382
 30
0
 11
195.732
 21
99.9656
 31
0
  0
SPLINE
  5
493
330
112
100
AcDbEntity
  8
ProjItem008
100
AcDbSpline
210
0
220
0
230
1
 70
8
 71
3
 72
26
 73
22
 74
0
 40
4.39823
 40
4.39823
 40
4.39823
 40
4.39823
 40
5.02655
 40
5.02655
 40
5.02655
 40
5.11631
 40
5.11631
 40
5.11631
 40
5.29583
 40
5.29583
 40
5.29583
 40
5.38559
 40
5.38559
 40
5.38559
 40
5.47535
 40
5.47535
 40
5.47535
 40
5.56511
 40
5.56511
 40
5.56511
 40
5.65487
 40
5.65487
 40
5.65487
 40
5.65487
 10
195.732
 20
99.9656
 30
0
 10
195.732
 20
100.365
 30
0
 10
195.732
 20
100.802
 30
0
 10
195.732
 20
101.202
 30
0
 10
195.732
 20
101.258
 30
0
 10
195.732
 20
101.314
 30
0
 10
195.732
 20
101.37
 30
0
 10
195.732
 20
101.479
 30
0
 10
195.732
 20
101.584
 30
0
 10
195.732
 20
101.685
 30
0
 10
195.732
 20
101.734
 30
0
 10
195.732
 20
101.782
 30
0
 10
195.732
 20
101.831
 30
0
 10
195.732
 20
101.876
 30
0
 10
195.732
 20
101.921
 30
0
 10
195.732
 20
101.966
 30
0
 10
195.732
 20
102.007
 30
0
 10
195.732
 20
102.048
 30
0
 10
195.732
 20
102.09
 30
0
 10
195.732
 20
102.127
 30
0
 10
195.732
 20
102.164
 30
0
 10
195.732
 20
102.202
 30
0
  0
LINE
  5
494
330
112
100
AcDbEntity
  8
ProjItem008
100
AcDbLine
 10
195.732
 20
102.202
 30
0
 11
195.732
 21
106.271
 31
0
  0
LINE
  5
495
330
112
100
AcDbEntity
  8
ProjItem008
100
AcDbLine
 10
190.732
 20
109.889
 30
0
 11
195.732
 21
109.889
 31
0
  0
SPLINE
  5
496
330
112
100
AcDbEntity
  8
ProjItem008
100
AcDbSpline
210
0
220
0
230
1
 70
8
 71
1
 72
17
 73
15
 74
0
 40
3.76991
 40
3.76991
 40
3.94943
 40
4.12895
 40
4.30847
 40
4.48799
 40
4.66751
 40
4.84703
 40
5.02655
 40
5.20607
 40
5.38559
 40
5.56511
 40
5.74463
 40
5.92415
 40
6.10367
 40
6.28319
 40
6.28319
 10
195.732
 20
106.271
 30
0
 10
195.732
 20
106.506
 30
0
 10
195.732
 20
106.787
 30
0
 10
195.732
 20
107.102
 30
0
 10
195.732
 20
107.444
 30
0
 10
195.732
 20
107.799
 30
0
 10
195.732
 20
108.157
 30
0
 10
195.732
 20
108.507
 30
0
 10
195.732
 20
108.836
 30
0
 10
195.732
 20
109.136
 30
0
 10
195.732
 20
109.395
 30
0
 10
195.732
 20
109.605
 30
0
 10
195.732
 20
109.761
 30
0
 10
195.732
 20
109.856
 30
0
 10
195.732
 20
109.889
 30
0
  0
SPLINE
  5
497
330
112
100
AcDbEntity
  8
ProjItem008
100
AcDbSpline
210
0
220
0
230
1
 70
8
 71
2
 72
30
 73
27
 74
0
 40
5.02655
 40
5.02655
 40
5.02655
 40
5.11631
 40
5.11631
 40
5.29583
 40
5.29583
 40
5.38559
 40
5.38559
 40
5.47535
 40
5.47535
 40
5.56511
 40
5.56511
 40
5.65487
 40
5.65487
 40
5.74463
 40
5.74463
 40
5.83439
 40
5.83439
 40
5.92415
 40
5.92415
 40
6.01391
 40
6.01391
 40
6.10367
 40
6.10367
 40
6.19343
 40
6.19343
 40
6.28319
 40
6.28319
 40
6.28319
 10
195.732
 20
117.854
 30
0
 10
195.732
 20
117.938
 30
0
 10
195.732
 20
118.022
 30
0
 10
195.732
 20
118.186
 30
0
 10
195.732
 20
118.338
 30
0
 10
195.732
 20
118.41
 30
0
 10
195.732
 20
118.483
 30
0
 10
195.732
 20
118.551
 30
0
 10
195.732
 20
118.618
 30
0
 10
195.732
 20
118.68
 30
0
 10
195.732
 20
118.742
 30
0
 10
195.732
 20
118.798
 30
0
 10
195.732
 20
118.854
 30
0
 10
195.732
 20
118.904
 30
0
 10
195.732
 20
118.953
 30
0
 10
195.732
 20
118.995
 30
0
 10
195.732
 20
119.038
 30
0
 10
195.732
 20
119.073
 30
0
 10
195.732
 20
119.109
 30
0
 10
195.732
 20
119.136
 30
0
 10
195.732
 20
119.164
 30
0
 10
195.732
 20
119.184
 30
0
 10
195.732
 20
119.204
 30
0
 10
195.732
 20
119.216
 30
0
 10
195.732
 20
119.228
 30
0
 10
195.732
 20
119.232
 30
0
 10
195.732
 20
119.236
 30
0
  0
SPLINE
  5
498
330
112
100
AcDbEntity
  8
ProjItem008
100
AcDbSpline
210
0
220
0
230
1
 70
8
 71
2
 72
30
 73
27
 74
0
 40
3.14159
 40
3.14159
 40
3.14159
 40
3.23135
 40
3.23135
 40
3.32111
 40
3.32111
 40
3.41087
 40
3.41087
 40
3.50063
 40
3.50063
 40
3.59039
 40
3.59039
 40
3.68015
 40
3.68015
 40
3.76991
 40
3.76991
 40
3.85967
 40
3.85967
 40
3.94943
 40
3.94943
 40
4.03919
 40
4.03919
 40
4.12895
 40
4.12895
 40
4.21871
 40
4.21871
 40
4.39823
 40
4.39823
 40
4.39823
 10
195.732
 20
109.889
 30
0
 10
195.732
 20
109.893
 30
0
 10
195.732
 20
109.897
 30
0
 10
195.732
 20
109.909
 30
0
 10
195.732
 20
109.921
 30
0
 10
195.732
 20
109.941
 30
0
 10
195.732
 20
109.961
 30
0
 10
195.732
 20
109.988
 30
0
 10
195.732
 20
110.016
 30
0
 10
195.732
 20
110.051
 30
0
 10
195.732
 20
110.087
 30
0
 10
195.732
 20
110.129
 30
0
 10
195.732
 20
110.172
 30
0
 10
195.732
 20
110.221
 30
0
 10
195.732
 20
110.271
 30
0
 10
195.732
 20
110.326
 30
0
 10
195.732
 20
110.382
 30
0
 10
195.732
 20
110.444
 30
0
 10
195.732
 20
110.506
 30
0
 10
195.732
 20
110.574
 30
0
 10
195.732
 20
110.642
 30
0
 10
195.732
 20
110.714
 30
0
 10
195.732
 20
110.787
 30
0
 10
195.732
 20
110.864
 30
0
 10
195.732
 20
110.941
 30
0
 10
195.732
 20
111.101
 30
0
 10
195.732
 20
111.271
 30
0
  0
LINE
  5
499
330
112
100
AcDbEntity
  8
ProjItem008
100
AcDbLine
 10
195.732
 20
111.271
 30
0
 11
195.732
 21
117.854
 31
0
  0
LINE
  5
49A
330
112
100
AcDbEntity
  8
ProjItem008
100
AcDbLine
 10
190.732
 20
90.7639
 30
0
 11
195.732
 21
90.7639
 31
0
  0
LINE
  5
49B
330
112
100
AcDbEntity
  8
ProjItem008
100
AcDbLine
 10
190.732
 20
119.236
 30
0
 11
195.732
 21
119.236
 31
0
  0
LINE
  5
49C
330
112
100
AcDbEntity
  8
ProjItem009
100
AcDbLine
 10
231.187
 20
91.1459
 30
0
 11
236.787
 21
95.2148
 31
0
  0
ARC
  5
49D
330
112
100
AcDbEntity
  8
ProjItem009
100
AcDbCircle
 10
230.012
 20
92.7639
 30
0
 40
2
100
AcDbArc
 50
162
 51
-54
  0
ARC
  5
49E
330
112
100
AcDbEntity
  8
ProjItem009
100
AcDbCircle
 10
237.963
 20
93.5967
 30
0
 40
2
100
AcDbArc
 50
54
 51
126
  0
LINE
  5
49F
330
112
100
AcDbEntity
  8
ProjItem009
100
AcDbLine
 10
230.249
 20
99.9656
 30
0
 11
228.109
 21
93.382
 31
0
  0
LINE
  5
4A0
330
112
100
AcDbEntity
  8
ProjItem009
100
AcDbLine
 10
239.139
 20
95.2148
 30
0
 11
244.739
 21
91.1459
 31
0
  0
ARC
  5
4A1
330
112
100
AcDbEntity
  8
ProjItem009
100
AcDbCircle
 10
228.346
 20
100.584
 30
0
 40
2
100
AcDbArc
 50
-18
 51
54
  0
ARC
  5
4A2
330
112
100
AcDbEntity
  8
ProjItem009
100
AcDbCircle
 10
245.915
 20
92.7639
 30
0
 40
2
100
AcDbArc
 50
-126
 51
18
  0
LINE
  5
4A3
330
112
100
AcDbEntity
  8
ProjItem009
100
AcDbLine
 10
223.922
 20
106.271
 30
0
 11
229.522
 21
102.202
 31
0
  0
LINE
  5
4A4
330
112
100
AcDbEntity
  8
ProjItem009
100
AcDbLine
 10
247.817
 20
93.382
 30
0
 11
245.678
 21
99.9656
 31
0
  0
ARC
  5
4A5
330
112
100
AcDbEntity
  8
ProjItem009
100
AcDbCircle
 10
225.097
 20
107.889
 30
0
 40
2
100
AcDbArc
 50
90
 51
-126
  0
ARC
  5
4A6
330
112
100
AcDbEntity
  8
ProjItem009
100
AcDbCircle
 10
247.58
 20
100.584
 30
0
 40
2
100
AcDbArc
 50
126
 51
-162
  0
LINE
  5
4A7
330
112
100
AcDbEntity
  8
ProjItem009
100
AcDbLine
 10
232.02
 20
109.889
 30
0
 11
225.097
 21
109.889
 31
0
  0
LINE
  5
4A8
330
112
100
AcDbEntity
  8
ProjItem009
100
AcDbLine
 10
246.404
 20
102.202
 30
0
 11
252.004
 21
106.271
 31
0
  0
ARC
  5
4A9
330
112
100
AcDbEntity
  8
ProjItem009
100
AcDbCircle
 10
232.02
 20
111.889
 30
0
 40
2
100
AcDbArc
 50
-90
 51
-18
  0
ARC
  5
4AA
330
112
100
AcDbEntity
  8
ProjItem009
100
AcDbCircle
 10
250.829
 20
107.889
 30
0
 40
2
100
AcDbArc
 50
-54
 51
90
  0
LINE
  5
4AB
330
112
100
AcDbEntity
  8
ProjItem009
100
AcDbLine
 10
236.061
 20
117.854
 30
0
 11
233.922
 21
111.271
 31
0
  0
LINE
  5
4AC
330
112
100
AcDbEntity
  8
ProjItem009
100
AcDbLine
 10
250.829
 20
109.889
 30
0
 11
243.906
 21
109.889
 31
0
  0
ARC
  5
4AD
330
112
100
AcDbEntity
  8
ProjItem009
100
AcDbCircle
 10
237.963
 20
117.236
 30
0
 40
2
100
AcDbArc
 50
18
 51
162
  0
ARC
  5
4AE
330
112
100
AcDbEntity
  8
ProjItem009
100
AcDbCircle
 10
243.906
 20
111.889
 30
0
 40
2
100
AcDbArc
 50
-162
 51
-90
  0
LINE
  5
4AF
330
112
100
AcDbEntity
  8
ProjItem009
100
AcDbLine
 10
242.004
 20
111.271
 30
0
 11
239.865
 21
117.854
 31
0
  0
LINE
  5
4B0
330
112
100
AcDbEntity
  8
ProjItem009
100
AcDbLine
 10
236.109
 20
102.797
 30
0
 11
235.621
 21
101.294
 31
0
  0
ARC
  5
4B1
330
112
100
AcDbEntity
  8
ProjItem009
100
AcDbCircle
 10
235.634
 20
102.951
 30
0
 40
0.5
100
AcDbArc
 50
-18
 51
54
  0
ARC
  5
4B2
330
112
100
AcDbEntity
  8
ProjItem009
100
AcDbCircle
 10
236.096
 20
101.139
 30
0
 40
0.5
100
AcDbArc
 50
162
 51
-54
  0
LINE
  5
4B3
330
112
100
AcDbEntity
  8
ProjItem009
100
AcDbLine
 10
234.649
 20
104.285
 30
0
 11
235.928
 21
103.356
 31
0
  0
LINE
  5
4B4
330
112
100
AcDbEntity
  8
ProjItem009
100
AcDbLine
 10
236.39
 20
100.735
 30
0
 11
237.669
 21
101.664
 31
0
  0
ARC
  5
4B5
330
112
100
AcDbEntity
  8
ProjItem009
100
AcDbCircle
 10
234.943
 20
104.69
 30
0
 40
0.5
100
AcDbArc
 50
90
 51
-126
  0
ARC
  5
4B6
330
112
100
AcDbEntity
  8
ProjItem009
100
AcDbCircle
 10
237.963
 20
101.259
 30
0
 40
0.5
100
AcDbArc
 50
54
 51
126
  0
LINE
  5
4B7
330
112
100
AcDbEntity
  8
ProjItem009
100
AcDbLine
 10
236.524
 20
105.19
 30
0
 11
234.943
 21
105.19
 31
0
  0
LINE
  5
4B8
330
112
100
AcDbEntity
  8
ProjItem009
100
AcDbLine
 10
238.257
 20
101.664
 30
0
 11
239.536
 21
100.735
 31
0
  0
ARC
  5
4B9
330
112
100
AcDbEntity
  8
ProjItem009
100
AcDbCircle
 10
236.524
 20
105.69
 30
0
 40
0.5
100
AcDbArc
 50
-90
 51
-18
  0
ARC
  5
4BA
330
112
100
AcDbEntity
  8
ProjItem009
100
AcDbCircle
 10
239.83
 20
101.139
 30
0
 40
0.5
100
AcDbArc
 50
-126
 51
18
  0
LINE
  5
4BB
330
112
100
AcDbEntity
  8
ProjItem009
100
AcDbLine
 10
237.488
 20
107.038
 30
0
 11
236.999
 21
105.535
 31
0
  0
LINE
  5
4BC
330
112
100
AcDbEntity
  8
ProjItem009
100
AcDbLine
 10
240.305
 20
101.294
 30
0
 11
239.817
 21
102.797
 31
0
  0
ARC
  5
4BD
330
112
100
AcDbEntity
  8
ProjItem009
100
AcDbCircle
 10
237.963
 20
106.884
 30
0
 40
0.5
100
AcDbArc
 50
18
 51
162
  0
ARC
  5
4BE
330
112
100
AcDbEntity
  8
ProjItem009
100
AcDbCircle
 10
240.292
 20
102.951
 30
0
 40
0.5
100
AcDbArc
 50
126
 51
-162
  0
LINE
  5
4BF
330
112
100
AcDbEntity
  8
ProjItem009
100
AcDbLine
 10
238.927
 20
105.535
 30
0
 11
238.439
 21
107.038
 31
0
  0
LINE
  5
4C0
330
112
100
AcDbEntity
  8
ProjItem009
100
AcDbLine
 10
239.998
 20
103.356
 30
0
 11
241.277
 21
104.285
 31
0
  0
ARC
  5
4C1
330
112
100
AcDbEntity
  8
ProjItem009
100
AcDbCircle
 10
239.403
 20
105.69
 30
0
 40
0.5
100
AcDbArc
 50
-162
 51
-90
  0
ARC
  5
4C2
330
112
100
AcDbEntity
  8
ProjItem009
100
AcDbCircle
 10
240.983
 20
104.69
 30
0
 40
0.5
100
AcDbArc
 50
-54
 51
90
  0
LINE
  5
4C3
330
112
100
AcDbEntity
  8
ProjItem009
100
AcDbLine
 10
240.983
 20
105.19
 30
0
 11
239.403
 21
105.19
 31
0
  0
CIRCLE
  5
4C4
330
112
100
AcDbEntity
  8
ProjItem009
100
AcDbCircle
 10
237.963
 20
117.236
 40
1
  0
ENDSEC
  0
SECTION
  2
OBJECTS
  0
DICTIONARY
  5
500
330
0
100
AcDbDictionary
  3
ACAD_GROUP
350
501
  0
DICTIONARY
  5
501
330
500
100
AcDbDictionary
  0
ENDSEC
  0
EOF